<svg width="85" height="74" viewBox="0 0 85 74" xmlns="http://www.w3.org/2000/svg">
<path d="M45.9682 65.7091C45.2062 66.0566 44.3451 66.1102 43.547 65.8597L16.0775 54.1553C12.0134 52.8798 13.0239 48.6387 17.2265 49.3086L46.9408 51.0339C47.7662 51.1655 48.5159 51.5981 49.049 52.2503L52.703 57.362C53.2652 59.5789 53.0251 60.6284 51.4692 62.7516L45.9682 65.7091Z" fill="#162831"/>
<path fill-rule="evenodd" clip-rule="evenodd" d="M42.5 4.30895C21.3739 4.30895 4.25 21.6624 4.25 43.0663C4.25 53.7016 8.4748 63.333 15.3219 70.3383L12.3031 73.3713C4.69967 65.5922 0 54.8833 0 43.0663C0 19.2804 19.0289 0 42.5 0C65.9711 0 85 19.2804 85 43.0663C85 55.2054 80.0409 66.1743 72.0698 74L69.1133 70.9045C76.2922 63.8565 80.75 53.9907 80.75 43.0663C80.75 21.6624 63.6261 4.30895 42.5 4.30895Z" fill="#162831"/>
<path fill-rule="evenodd" clip-rule="evenodd" d="M40.3751 15.081V4.30862L44.6251 4.30859V15.081H40.3751Z" fill="#162831"/>
<path fill-rule="evenodd" clip-rule="evenodd" d="M69.5011 71.2445L61.7509 63.3867L64.756 60.3398L72.5063 68.1974L69.5011 71.2445Z" fill="#162831"/>
<path fill-rule="evenodd" clip-rule="evenodd" d="M21.5085 22.6981L13.9951 15.0812L17.0003 12.0342L24.5137 19.6512L21.5085 22.6981Z" fill="#162831"/>
<path fill-rule="evenodd" clip-rule="evenodd" d="M71.5801 38.7803H82.2051V43.0892H71.5801V38.7803Z" fill="#162831"/>
<path fill-rule="evenodd" clip-rule="evenodd" d="M2.23633 38.7803H12.8614V43.0892H2.23633V38.7803Z" fill="#162831"/>
<path fill-rule="evenodd" clip-rule="evenodd" d="M60.7452 19.3904L68.496 11.5332L71.5009 14.5803L63.7502 22.4375L60.7452 19.3904Z" fill="#162831"/>
<path fill-rule="evenodd" clip-rule="evenodd" d="M21.6693 63.8223L13.919 71.6803L10.9138 68.6334L18.6639 60.7754L21.6693 63.8223Z" fill="#162831"/>
</svg>
