<svg width="85" height="74" viewBox="0 0 85 74" fill="none" xmlns="http://www.w3.org/2000/svg">
<path fill-rule="evenodd" clip-rule="evenodd" d="M42.5 4.18346C21.3739 4.18346 4.25 21.0315 4.25 41.812C4.25 52.1377 8.4748 61.4885 15.3219 68.2898L12.3031 71.2345C4.69967 63.6819 0 53.285 0 41.812C0 18.7189 19.0289 0 42.5 0C65.9711 0 85 18.7189 85 41.812C85 53.5977 80.0409 64.2471 72.0698 71.8449L69.1133 68.8395C76.2922 61.9968 80.75 52.4184 80.75 41.812C80.75 21.0315 63.6261 4.18346 42.5 4.18346Z" fill="#162831"/>
<path fill-rule="evenodd" clip-rule="evenodd" d="M40.375 14.6422V4.18361L44.625 4.18359V14.6422H40.375Z" fill="#162831"/>
<path fill-rule="evenodd" clip-rule="evenodd" d="M69.5025 69.1691L61.752 61.5402L64.7571 58.582L72.5074 66.2108L69.5025 69.1691Z" fill="#162831"/>
<path fill-rule="evenodd" clip-rule="evenodd" d="M21.5085 22.037L13.9951 14.6418L17.0003 11.6836L24.5137 19.0788L21.5085 22.037Z" fill="#162831"/>
<path fill-rule="evenodd" clip-rule="evenodd" d="M71.5801 37.6514H82.2051V41.8348H71.5801V37.6514Z" fill="#162831"/>
<path fill-rule="evenodd" clip-rule="evenodd" d="M2.2373 37.6514H12.8624V41.8348H2.2373V37.6514Z" fill="#162831"/>
<path fill-rule="evenodd" clip-rule="evenodd" d="M60.7451 18.8256L68.4958 11.1973L71.501 14.1556L63.7501 21.784L60.7451 18.8256Z" fill="#162831"/>
<path fill-rule="evenodd" clip-rule="evenodd" d="M21.6686 61.964L13.9183 69.5932L10.9131 66.635L18.6632 59.0059L21.6686 61.964Z" fill="#162831"/>
<path d="M36.0233 68.6054C35.5172 67.9511 35.2709 67.1373 35.3312 66.3171L40.3666 37.4085C40.673 33.2318 44.9764 33.2698 45.2828 37.4466L50.3429 66.3171C50.403 67.1373 50.1569 67.9511 49.6507 68.6054L45.5654 73.2311C43.5626 74.2569 42.5001 74.2569 40.1084 73.2311L36.0233 68.6054Z" fill="#162831"/>
</svg>
