<svg width="60" height="92" viewBox="0 0 60 92" fill="none" xmlns="http://www.w3.org/2000/svg">
<path fill-rule="evenodd" clip-rule="evenodd" d="M14.3145 1.9749C12.3756 2.94595 10.1597 4.77115 9.39035 6.03055C8.62094 7.28839 6.03422 10.1111 3.64138 12.3026C-1.48283 16.9942 -1.36434 17.3636 5.05246 16.6934C9.42574 16.2351 10.0459 15.9187 11.2384 13.5324C13.9452 8.11448 18.6001 6.0134 21.4669 8.9172C24.6029 12.0938 19.4218 19.0922 14.5869 18.21C14.1883 18.1383 15.2624 19.7265 16.972 21.7388C22.9133 28.7325 28.7592 43.0785 35.9085 68.2072C39.317 80.1918 46.2939 87.3461 55.122 87.915L60 88.2299L54.9404 85.7594C45.3337 81.0709 44.3042 78.7017 43.5533 59.5629L42.9839 45.0439L39.2816 36.0754C35.7593 27.5448 35.5884 26.7405 35.7593 19.5644C36.1301 4.09936 26.2448 -4.00725 14.3145 1.9749ZM11.0784 20.6836C13.4989 23.3941 12.3202 28.3241 7.43607 35.9133C-2.72926 51.7088 -1.232 64.5958 12.4664 79.2036C19.1263 86.3033 19.0602 86.1521 15.7902 86.88C11.0969 87.9244 10.9353 89.6872 15.4686 90.3902C21.0498 91.2537 43.0578 91.2817 48.1235 90.4307L52.2691 89.7355L48.9668 88.2299C41.4728 84.8117 36.6902 77.3052 32.6093 62.5524C25.777 37.8554 16.358 18.994 10.8568 18.994C9.77658 18.994 9.81198 19.2667 11.0784 20.6836ZM17.0874 27.1863C20.7836 33.5753 20.8159 40.0437 17.1967 49.3739C12.4679 61.5595 12.508 65.4702 17.4767 77.3286L19.9111 83.1377L17.4629 81.3717C4.56159 72.0681 0.696115 52.0969 8.78406 36.5461C11.5724 31.1843 13.2035 26.9915 13.2035 25.1803C13.2035 21.6453 14.1714 22.1456 17.0874 27.1863Z" fill="white"/>
</svg>
