<svg width="56" height="53" viewBox="0 0 56 53" fill="none" xmlns="http://www.w3.org/2000/svg">
<path fill-rule="evenodd" clip-rule="evenodd" d="M38.182 19.1047C38.182 24.3438 33.6233 28.5912 28.0002 28.5912C22.3769 28.5912 17.8184 24.3438 17.8184 19.1047C17.8184 13.8654 22.3769 9.61816 28.0002 9.61816C33.6233 9.61816 38.182 13.8654 38.182 19.1047ZM33.0911 19.1047C33.0911 21.7244 30.8119 23.8479 28.0002 23.8479C25.1885 23.8479 22.9093 21.7244 22.9093 19.1047C22.9093 16.485 25.1885 14.3614 28.0002 14.3614C30.8119 14.3614 33.0911 16.485 33.0911 19.1047Z" fill="white"/>
<path fill-rule="evenodd" clip-rule="evenodd" d="M28 0.131836C12.536 0.131836 0 11.8118 0 26.2197C0 40.6276 12.536 52.3077 28 52.3077C43.4639 52.3077 56 40.6276 56 26.2197C56 11.8118 43.4639 0.131836 28 0.131836ZM5.09091 26.2197C5.09091 31.1769 6.90467 35.7395 9.94759 39.3626C14.1335 34.257 20.736 30.963 28.1642 30.963C35.4959 30.963 42.0234 34.1721 46.2165 39.1648C49.1604 35.5742 50.9091 31.0873 50.9091 26.2197C50.9091 14.4314 40.6524 4.87509 28 4.87509C15.3477 4.87509 5.09091 14.4314 5.09091 26.2197ZM28 47.5644C22.5267 47.5644 17.5017 45.776 13.5613 42.7922C16.7835 38.5076 22.1227 35.7063 28.1642 35.7063C34.1305 35.7063 39.412 38.4386 42.646 42.6336C38.6754 45.7124 33.5697 47.5644 28 47.5644Z" fill="white"/>
</svg>
