<svg width="85" height="74" viewBox="0 0 85 74" fill="none" xmlns="http://www.w3.org/2000/svg">
<path d="M35.1619 52.7998C35.673 52.1297 36.4078 51.6717 37.2285 51.512L66.8992 48.7368C71.0772 47.9235 72.1537 52.1478 68.1343 53.5616L41.1136 66.2133C40.3244 66.4908 39.4621 66.4669 38.689 66.1454L33.0926 63.378C31.5675 61.69 31.2925 60.6494 31.6801 58.0336L35.1619 52.7998Z" fill="#162831"/>
<path fill-rule="evenodd" clip-rule="evenodd" d="M42.5 4.30895C21.3739 4.30895 4.25 21.6624 4.25 43.0663C4.25 53.7016 8.4748 63.333 15.3219 70.3383L12.3031 73.3713C4.69967 65.5922 0 54.8833 0 43.0663C0 19.2804 19.0289 0 42.5 0C65.9711 0 85 19.2804 85 43.0663C85 55.2054 80.0409 66.1743 72.0698 74L69.1133 70.9045C76.2922 63.8565 80.75 53.9907 80.75 43.0663C80.75 21.6624 63.6261 4.30895 42.5 4.30895Z" fill="#162831"/>
<path fill-rule="evenodd" clip-rule="evenodd" d="M40.375 15.081V4.30862L44.625 4.30859V15.081H40.375Z" fill="#162831"/>
<path fill-rule="evenodd" clip-rule="evenodd" d="M69.5025 71.2445L61.752 63.3867L64.7571 60.3398L72.5076 68.1974L69.5025 71.2445Z" fill="#162831"/>
<path fill-rule="evenodd" clip-rule="evenodd" d="M21.5085 22.6981L13.9951 15.0812L17.0003 12.0342L24.5137 19.6512L21.5085 22.6981Z" fill="#162831"/>
<path fill-rule="evenodd" clip-rule="evenodd" d="M71.5801 38.7803H82.2051V43.0892H71.5801V38.7803Z" fill="#162831"/>
<path fill-rule="evenodd" clip-rule="evenodd" d="M2.2373 38.7803H12.8624V43.0892H2.2373V38.7803Z" fill="#162831"/>
<path fill-rule="evenodd" clip-rule="evenodd" d="M60.7451 19.3904L68.4958 11.5332L71.501 14.5803L63.7501 22.4375L60.7451 19.3904Z" fill="#162831"/>
<path fill-rule="evenodd" clip-rule="evenodd" d="M21.6686 63.8223L13.9183 71.6803L10.9131 68.6334L18.6632 60.7754L21.6686 63.8223Z" fill="#162831"/>
</svg>
