<svg width="319" height="50" viewBox="0 0 319 50" fill="none" xmlns="http://www.w3.org/2000/svg">
<path fill-rule="evenodd" clip-rule="evenodd" d="M7.63068 1.05243C6.59711 1.5699 5.41589 2.54255 5.00574 3.21369C4.59559 3.88399 3.21668 5.38823 1.94112 6.55607C-0.790455 9.05622 -0.727293 9.25308 2.69333 8.89591C5.02461 8.65171 5.35519 8.4831 5.99091 7.21143C7.43381 4.32422 9.9152 3.20455 11.4434 4.75198C13.1152 6.44477 10.3532 10.1742 7.77587 9.7041C7.56342 9.66589 8.13598 10.5123 9.04733 11.5846C12.2145 15.3116 15.3308 22.9565 19.1419 36.3477C20.9588 42.7343 24.678 46.5468 29.3841 46.85L31.9844 47.0178L29.2873 45.7012C24.1662 43.2028 23.6174 41.9402 23.2171 31.7411L22.9136 24.0039L20.94 19.2246C19.0623 14.6786 18.9712 14.2501 19.0623 10.4259C19.26 2.18455 13.9904 -2.13547 7.63068 1.05243ZM5.9056 11.0223C7.19593 12.4667 6.56758 15.094 3.96397 19.1382C-1.45489 27.5557 -0.656748 34.4232 6.64551 42.2077C10.1957 45.9911 10.1605 45.9106 8.41734 46.2985C5.91545 46.855 5.82932 47.7944 8.2459 48.169C11.2211 48.6292 22.953 48.6441 25.6534 48.1906L27.8632 47.8201L26.1029 47.0178C22.1081 45.1962 19.5586 41.196 17.3832 33.3342C13.7411 20.1732 8.72003 10.1219 5.78748 10.1219C5.21164 10.1219 5.2305 10.2673 5.9056 11.0223ZM9.10885 14.4876C11.0792 17.8923 11.0964 21.3393 9.16709 26.3114C6.64633 32.8051 6.66766 34.8891 9.31639 41.2085L10.6141 44.3041L9.309 43.3631C2.43166 38.4051 0.37108 27.7625 4.68255 19.4754C6.16892 16.6181 7.03843 14.3838 7.03843 13.4186C7.03843 11.5348 7.5544 11.8014 9.10885 14.4876ZM29.8114 19.5286C29.6466 19.6956 29.512 23.5222 29.512 28.0324C29.512 42.0499 30.5243 42.8605 48.0531 42.8805L57.8294 42.8913V31.0268V19.1615L56.818 19.3068L55.8065 19.4522L55.686 30.0342L55.5654 40.6162H50.1793H44.7941V29.8888V19.1615L43.7827 19.3068L42.7713 19.4522L42.6507 30.0342L42.5301 40.6162H39.5344C32.5405 40.6162 31.7596 39.3329 31.7596 27.8514C31.7596 19.0344 31.4799 17.8391 29.8114 19.5286ZM98.0115 20.0926C88.6446 24.4002 89.0719 39.3387 98.6571 42.6454C110.769 46.8242 120.51 32.7287 112.163 23.1019C108.994 19.448 102.443 18.0551 98.0115 20.0926ZM156.322 20.419C150.031 23.5928 148.434 33.7753 153.321 39.5555C157.315 44.2817 164.871 44.7327 169.187 40.5033L170.648 39.0721V40.9817C170.648 42.7152 170.751 42.8913 171.771 42.8913H172.895V31.2859V19.6798H171.771C170.751 19.6798 170.648 19.8559 170.648 21.5902V23.4998L169.187 22.0678C165.997 18.9422 160.616 18.2519 156.322 20.419ZM183.982 19.5286C183.202 20.3185 183.713 22.4449 184.804 22.9482C186.73 23.8362 188.661 21.2629 187.188 19.7711C186.611 19.1872 184.479 19.0252 183.982 19.5286ZM198.064 20.1391C197.47 21.2613 198.497 23.3212 199.649 23.3212C200.89 23.3212 202.127 21.6242 201.715 20.4871C201.186 19.0269 198.773 18.7968 198.064 20.1391ZM243.228 20.0768C233.714 24.4525 234.422 39.8222 244.275 42.8115C252.644 45.3507 260.217 39.8936 260.269 31.2859C260.322 22.4258 251.186 16.4155 243.228 20.0768ZM302.544 20.0835C296.126 23.0346 294.25 33.2495 298.974 39.5206C302.452 44.1364 311.083 44.6397 314.896 40.4484C316.378 38.8188 316.727 38.9376 316.727 41.0714C316.727 42.5881 316.877 42.8913 317.626 42.8913C318.502 42.8913 318.525 42.5881 318.525 31.2859V19.6798H317.502C316.58 19.6798 316.496 19.8592 316.65 21.5005C316.848 23.5961 316.53 23.7689 315.33 22.2231C313.094 19.3459 306.534 18.2478 302.544 20.0835ZM67.2677 31.2859V42.8913H68.3915H69.5153V38.1684C69.5153 31.1672 69.631 31.158 76.3631 37.5961C81.2422 42.2617 82.0568 42.868 83.4488 42.8647C85.0139 42.8605 84.9902 42.829 78.7297 36.7414L72.4372 30.6231L74.46 28.7019C75.5723 27.6454 78.1645 25.1834 80.2201 23.2306L83.9582 19.6798L82.4677 19.6897C81.184 19.698 80.1816 20.4622 75.2459 25.1926L69.5153 30.6862V25.1826V19.6798H68.3915H67.2677V31.2859ZM125.7 28.9851C125.7 39.3238 125.346 40.6004 122.429 40.7715C120.419 40.8895 120.692 42.8913 122.718 42.8913C126.888 42.8913 127.947 40.2225 127.947 29.7078V21.5005H133.341H138.735V32.1963V42.8913H139.859H140.982V31.2859V19.6798H133.341H125.7V28.9851ZM212.449 31.2859V42.8913H213.573H214.696V38.1684C214.696 31.1472 214.81 31.1381 221.613 37.6019C226.478 42.2226 227.373 42.8888 228.693 42.8713C230.176 42.8506 230.093 42.7426 223.91 36.7248L217.618 30.599L219.191 29.1562C227.878 21.1873 229.234 19.6798 227.717 19.6798C226.465 19.6798 225.421 20.473 220.475 25.1859L214.696 30.6912V25.1859V19.6798H213.573H212.449V31.2859ZM271.777 25.7109C271.773 35.6276 270.942 38.6684 267.829 40.161L266.406 40.8438L266.396 45.0534C266.386 49.243 266.392 49.2637 267.51 49.2637C268.601 49.2637 268.633 49.1724 268.633 46.0775V42.8913H278.297H287.961V46.0775C287.961 49.1724 287.993 49.2637 289.084 49.2637C290.204 49.2637 290.208 49.248 290.208 44.9396V40.6162H288.41H286.613V30.148V19.6798H279.196H271.78L271.777 25.7109ZM105.923 21.4938C113.999 23.7689 115.159 35.939 107.701 40.1552C103.751 42.3879 99.1033 41.5166 95.9181 37.9466C89.2983 30.5276 96.4201 18.8159 105.923 21.4938ZM164.4 21.5636C168.544 22.9682 170.621 26.1395 170.638 31.0824C170.678 43.3182 155.696 45.4039 153.071 33.5278C151.389 25.9152 157.67 19.2819 164.4 21.5636ZM251.139 21.5653C260.458 24.3927 260.171 38.6543 250.746 41.0573C241.186 43.4951 234.536 31.6655 241.368 24.3711C244.153 21.3967 247.457 20.4481 251.139 21.5653ZM310.11 21.5279C315.17 22.9507 317.759 28.5956 316.064 34.5029C312.901 45.516 298.768 42.7011 298.768 31.0584C298.768 24.0247 303.838 19.7645 310.11 21.5279ZM284.365 31.0584V40.6162H277.811H271.257L272.305 38.9093C273.271 37.337 273.363 36.6293 273.486 29.9204C273.654 20.5993 273.044 21.5005 279.182 21.5005H284.365V31.0584ZM183.955 39.9708C183.164 42.0582 184.251 43.6438 186.141 43.1629C187.459 42.8281 188.114 40.9535 187.273 39.9276C186.534 39.0248 184.303 39.0538 183.955 39.9708ZM198.064 40.1652C197.659 40.9294 197.703 41.3646 198.269 42.2392C199.589 44.2801 201.865 43.2617 201.582 40.7574C201.388 39.0489 198.876 38.6261 198.064 40.1652Z" fill="white"/>
</svg>
