<svg width="164" height="185" viewBox="0 0 164 185" fill="none" xmlns="http://www.w3.org/2000/svg">
<path d="M163.93 54.1703C163.929 51.0722 163.266 48.3346 161.926 45.985C160.61 43.6746 158.639 41.7381 155.995 40.207C134.17 27.6228 112.324 15.0771 90.5065 2.48001C84.6246 -0.915722 78.9216 -0.791926 73.0833 2.65256C64.3964 7.77566 20.9042 32.6933 7.94412 40.2C2.60677 43.2898 0.00962146 48.0184 0.0083386 54.1646C0 79.4722 0.0083386 104.779 0 130.088C0.00128286 133.118 0.635658 135.802 1.91659 138.116C3.23345 140.497 5.23215 142.486 7.93706 144.052C20.8978 151.559 64.3958 176.474 73.0808 181.599C78.9216 185.045 84.6246 185.168 90.5084 181.771C112.327 169.174 134.174 156.629 156.002 144.044C158.707 142.479 160.705 140.488 162.022 138.11C163.301 135.796 163.937 133.111 163.938 130.08C163.938 130.08 163.938 79.4786 163.93 54.1703Z" fill="#5C8DBC"/>
<path d="M82.2212 91.8789L1.91797 138.116C3.23483 140.496 5.23352 142.486 7.93844 144.052C20.8992 151.558 64.3972 176.474 73.0821 181.598C78.923 185.045 84.626 185.168 90.5098 181.771C112.328 169.173 134.175 156.628 156.003 144.044C158.708 142.479 160.707 140.488 162.024 138.109L82.2212 91.8789Z" fill="#1A4674"/>
<path d="M58.4355 105.575C63.1084 113.732 71.8928 119.235 81.9696 119.235C92.1087 119.235 100.943 113.663 105.592 105.418L82.2204 91.8789L58.4355 105.575Z" fill="#1A4674"/>
<path d="M163.929 54.1706C163.927 51.0725 163.265 48.3349 161.925 45.9854L82.2188 91.8797L162.021 138.11C163.3 135.796 163.936 133.112 163.937 130.081C163.937 130.081 163.937 79.4789 163.929 54.1706Z" fill="#1B598E"/>
<path d="M159.543 95.1842H153.307V101.421H147.069V95.1842H140.834V88.9489H147.069V82.7129H153.307V88.9489H159.543V95.1842Z" fill="white"/>
<path d="M136.787 95.1842H130.552V101.421H124.316V95.1842H118.08V88.9489H124.316V82.7129H130.552V88.9489H136.787V95.1842Z" fill="white"/>
<path d="M105.591 105.418C100.942 113.663 92.1079 119.235 81.9688 119.235C71.8919 119.235 63.1075 113.733 58.4347 105.575C56.1647 101.611 54.8593 97.0214 54.8593 92.1254C54.8593 77.1537 66.9971 65.0166 81.9688 65.0166C91.9809 65.0166 100.719 70.4501 105.415 78.5245L129.11 64.8799C119.692 48.6222 102.108 37.6846 81.9688 37.6846C51.9011 37.6846 27.5273 62.0589 27.5273 92.1254C27.5273 101.989 30.1514 111.239 34.7377 119.218C44.1321 135.562 61.7656 146.567 81.9688 146.567C102.209 146.567 119.87 135.518 129.251 119.126L105.591 105.418Z" fill="white"/>
</svg>
