<svg width="131" height="149" viewBox="0 0 131 149" fill="none" xmlns="http://www.w3.org/2000/svg">
<path d="M25.9888 1.91486H105.015V80.0794H25.9888V1.91486ZM24.5415 81.5108H106.463V0.483398H24.5415V81.5108Z" fill="#162831"/>
<path d="M35.2107 34.9725H37.1628V46.9901H35.2107V52.5495H47.8657V46.9901H45.9136V34.9725H47.8657V29.4131H35.2107V34.9725Z" fill="#162831"/>
<path d="M70.0119 40.5319C70.4495 40.3987 73.1757 39.1004 73.1757 35.2055C73.1757 32.2094 70.8197 29.4131 66.7809 29.4131H50.188V34.9725H52.1401V46.9901H50.188V52.5495H57.9628H67.9252C70.9207 52.5495 73.9498 49.7865 73.9498 46.058C73.9498 43.528 72.3679 41.5306 70.0119 40.6318V40.5319ZM63.6844 47.0234H60.1841V43.5613H63.6844C64.6941 43.5613 65.4346 44.3935 65.4346 45.2923C65.4683 46.1912 64.7615 47.0234 63.6844 47.0234ZM60.1841 38.3015V34.9725H63.5498C64.4585 34.9725 65.199 35.7382 65.199 36.637C65.199 37.5025 64.4249 38.3015 63.5162 38.3015H60.1841Z" fill="#162831"/>
<path d="M84.6865 38.3015C83.7104 38.3015 83.0036 37.4359 83.0036 36.637C83.0036 35.7049 83.7777 34.9725 84.6865 34.9725H88.0522V36.6037H95.2211V29.4131H83.1719C78.6282 29.4131 75.0942 32.0763 75.0942 36.6037C75.0942 40.5319 78.3253 43.528 82.3305 43.528H87.1098C88.1195 43.528 88.8599 44.3935 88.8599 45.259C88.8599 46.1579 88.0858 46.9901 87.1098 46.9901H83.6095V45.3256H76.3395V52.5162H89.1629H89.5331C93.5383 52.5162 96.803 49.2871 96.803 45.3256C96.803 41.3641 93.5046 38.3015 89.4994 38.3015H84.6865Z" fill="#162831"/>
<path d="M0.193604 89.6133H8.94442C18.8732 89.6133 24.292 94.1074 24.292 104.694C24.292 115.18 18.8732 119.94 8.84345 119.94H0.227263V89.6133H0.193604ZM8.80979 116.378C16.046 116.378 19.3781 113.116 19.3781 104.727C19.3781 96.4044 16.046 93.2086 8.80979 93.2086H4.90558V116.378H8.80979Z" fill="#009C4F"/>
<path d="M44.8228 114.614V97.2695H49.2992V119.94H46.5057C45.4623 119.94 45.0248 119.607 44.8902 117.377C42.6015 118.974 39.6397 120.24 36.6105 120.24C33.0092 120.24 30.3503 118.775 30.3503 114.181V97.2695H34.8267V113.182C34.8267 116.078 36.274 116.777 38.3607 116.777C40.683 116.777 43.0054 115.679 44.8228 114.614Z" fill="#009C4F"/>
<path d="M59.8675 100.132C62.0888 98.4013 65.2526 96.9365 68.6183 96.9365C71.8157 96.9365 74.4746 98.2348 74.4746 103.162V119.94H69.9982V104.227C69.9982 101.397 68.7192 100.632 66.5315 100.632C64.0409 100.632 61.7186 101.797 59.8338 102.895V119.973H55.3574V97.2694H58.151C59.2953 97.2694 59.7665 97.7355 59.8675 100.132Z" fill="#009C4F"/>
<path d="M79.8933 92.2431C79.8933 90.8116 81.105 89.6465 82.5186 89.6465C83.9321 89.6465 85.1438 90.8116 85.1438 92.2431C85.1438 93.6413 83.9321 94.7398 82.5186 94.7398C81.105 94.7398 79.8933 93.6413 79.8933 92.2431ZM80.2299 119.94V97.2699H82.7205C84.4706 97.2699 84.7063 97.8025 84.7063 100.665V119.94H80.2299Z" fill="#009C4F"/>
<path d="M89.25 108.621C89.25 101.331 94.0629 96.9365 100.559 96.9365C104.093 96.9365 106.112 97.9352 107.425 98.7675V102.23H105.574C104.598 101.264 102.982 100.365 100.491 100.365C96.5536 100.365 93.7937 103.328 93.7937 108.655C93.7937 114.114 96.3853 116.844 100.424 116.844C103.42 116.844 105.035 115.712 105.978 114.68H107.627V117.876C106.314 118.908 103.891 120.206 100.323 120.206C93.3898 120.173 89.25 115.812 89.25 108.621Z" fill="#009C4F"/>
<path d="M115.099 109.453C115.301 114.813 117.758 116.877 122.066 116.877C124.994 116.877 127.013 115.912 128.427 114.813H129.874V117.876C128.225 119.008 125.701 120.206 121.426 120.206C114.426 120.206 110.521 115.779 110.521 108.688C110.521 101.464 115.032 96.9365 120.989 96.9365C127.047 96.9365 130.581 100.432 130.581 107.889C130.581 108.488 130.547 109.287 130.547 109.453H115.099ZM115.2 106.524H126.138C126.037 101.63 124.119 99.9326 120.955 99.9326C117.993 99.9659 115.671 101.73 115.2 106.524Z" fill="#009C4F"/>
<path d="M130.581 140.979H0.664795V148.902H130.581V140.979Z" fill="#162831"/>
</svg>
