<svg width="189" height="189" viewBox="0 0 189 189" fill="none" xmlns="http://www.w3.org/2000/svg">
<path d="M124.824 0H26.8751C24.1481 0 21.9375 2.21062 21.9375 6.50025V185.625C21.9375 186.789 24.1481 189 26.8751 189H162.125C164.852 189 167.062 186.789 167.062 185.625V43.8008C167.062 41.4517 166.749 40.6957 166.195 40.1389L126.924 0.867375C126.367 0.313875 125.611 0 124.824 0Z" fill="#E9E9E0"/>
<path d="M126.562 0.509766V40.5001H166.553L126.562 0.509766Z" fill="#D9D7CA"/>
<path d="M162.125 189H26.8751C24.1481 189 21.9375 186.789 21.9375 184.062V131.625H167.062V184.062C167.062 186.789 164.852 189 162.125 189Z" fill="#EC6630"/>
<path d="M58.9097 144.868V178.875H53.3713V163.556H38.6529V178.875H33.0234V144.868H38.6529V159.772H53.3713V144.868H58.9097Z" fill="white"/>
<path d="M91.4844 144.868V148.652H81.3358V178.875H75.7536V148.652H65.6016V144.868H91.4844Z" fill="white"/>
<path d="M123.879 144.868H129.509V178.875H123.879V155.479L116.265 174.396H111.375L103.713 155.479V178.875H98.084V144.868H103.713L113.818 168.125L123.879 144.868Z" fill="white"/>
<path d="M143.672 144.868V174.676H159.316V178.875H138.043V144.868H143.672Z" fill="white"/>
<path d="M78.3245 54.9887C77.0048 53.6691 74.8718 53.6691 73.5522 54.9887L53.3022 75.2387C51.9826 76.5584 51.9826 78.6914 53.3022 80.011L73.5522 100.261C74.2103 100.919 75.0743 101.25 75.9383 101.25C76.8023 101.25 77.6663 100.919 78.3245 100.261C79.6441 98.9414 79.6441 96.8084 78.3245 95.4887L60.4606 77.6249L78.3245 59.761C79.6441 58.4414 79.6441 56.3084 78.3245 54.9887Z" fill="#EC6630"/>
<path d="M139.074 75.2387L118.824 54.9887C117.505 53.6691 115.372 53.6691 114.052 54.9887C112.733 56.3084 112.733 58.4414 114.052 59.761L131.916 77.6249L114.052 95.4887C112.733 96.8084 112.733 98.9414 114.052 100.261C114.71 100.919 115.574 101.25 116.438 101.25C117.302 101.25 118.166 100.919 118.824 100.261L139.074 80.011C140.394 78.6914 140.394 76.5584 139.074 75.2387Z" fill="#EC6630"/>
</svg>
