<svg width="202" height="18" viewBox="0 0 202 18" fill="none" xmlns="http://www.w3.org/2000/svg">
<path fill-rule="evenodd" clip-rule="evenodd" d="M83.1614 0.970026C79.785 1.64079 78.2168 3.28559 78.2168 6.15604C78.2168 9.15494 79.9334 10.5759 84.6314 11.4652C86.7562 11.8678 87.2928 12.2015 86.6092 12.6975C85.6143 13.4179 82.8527 12.9147 81.1294 11.6989C80.184 11.0322 80.0343 11.1196 78.6017 13.1802C77.437 14.8568 77.4791 14.97 79.6968 16.0818C85.899 19.1912 93.2383 15.848 91.8251 10.5567C91.2525 8.41134 89.9101 7.49359 86.0313 6.59571C84.1076 6.15074 83.4073 5.87726 83.3431 5.54552C83.1955 4.78536 85.8114 4.93899 87.5387 5.79185C88.3185 6.17722 89.0408 6.38448 89.1564 6.25536C90.6752 4.56884 91.5618 3.14256 91.2919 2.82009C90.7827 2.21156 88.3104 1.18324 86.9032 0.993861C86.1682 0.895199 85.3865 0.777337 85.166 0.732973C84.9455 0.687946 84.0434 0.794554 83.1614 0.970026ZM58.8394 1.09252C51.4412 3.02205 50.6073 13.2385 57.5872 16.4314C62.3607 18.6152 68.3504 16.1904 69.7856 11.4937C71.7555 5.04559 65.709 -0.699273 58.8394 1.09252ZM190.873 1.08855C182.123 3.36968 182.878 15.6103 191.858 17.0439C198.458 18.0967 203.523 12.4975 201.561 6.31694C200.325 2.42147 195.261 -0.0556541 190.873 1.08855ZM14.401 9.0033L14.4718 16.883H16.7436H19.0155L19.0863 9.0033L19.1571 1.12364H16.7436H14.3301L14.401 9.0033ZM28.8338 9.0033L28.9046 16.883L31.2433 16.9598L33.5819 17.0359V13.2954C33.5819 8.81393 33.4162 8.81326 36.7124 13.3073L39.3357 16.883H41.6035H43.872L43.9428 9.0033L44.0137 1.12364H41.6042H39.1947V4.43443C39.1947 6.28383 39.0858 7.74521 38.9475 7.74521C38.8118 7.74521 37.5997 6.25536 36.2547 4.43443L33.8084 1.12364H31.286H28.763L28.8338 9.0033ZM99.1758 1.48254C99.099 1.67986 99.0729 2.60356 99.117 3.53522L99.1979 5.22901L101.264 5.30649L103.33 5.3833L103.402 11.1335L103.474 16.883L105.723 16.9604C108.598 17.0598 108.446 17.4054 108.376 10.9236L108.317 5.49388L110.373 5.41641L112.428 5.33893V3.23129V1.12364H105.871C100.601 1.12364 99.2874 1.19384 99.1758 1.48254ZM121.296 6.87447C121.423 15.4163 122.717 17.1114 129.133 17.1353C135.482 17.1591 137.017 15.0395 137.017 6.24608V1.12364H134.478H131.939V6.17656V11.2295L131.158 12.0035C129.934 13.2166 127.345 12.9994 126.622 11.6228C126.444 11.2818 126.299 9.10396 126.259 6.15604L126.193 1.25607L123.702 1.17993L121.211 1.10311L121.296 6.87447ZM146.57 1.30176C146.388 1.61629 146.347 15.9904 146.526 16.5486C146.855 17.5762 155.855 17.0929 158.191 15.9215C163.872 13.0736 163.767 4.97077 158.011 1.96259C156.629 1.24018 146.928 0.679996 146.57 1.30176ZM171.224 1.37791C171.222 1.52955 171.22 4.99064 171.22 9.06952C171.22 13.1484 171.222 16.6049 171.224 16.7505C171.226 16.9062 172.165 17.0154 173.495 17.0154C176.305 17.0154 176.076 17.7961 175.981 8.53979L175.906 1.25607L173.567 1.17926C172.08 1.13093 171.227 1.2031 171.224 1.37791ZM63.4058 5.74946C64.3853 6.38513 65.1183 7.73131 65.1197 8.89737C65.1237 13.5093 59.0285 14.2959 57.8638 9.83366C57.0259 6.62153 60.6428 3.95502 63.4058 5.74946ZM195.311 5.69782C198.596 7.87301 197.147 12.8597 193.228 12.8643C191.002 12.867 189.456 10.8732 189.741 8.36499C190.043 5.71173 193.112 4.2424 195.311 5.69782ZM156.298 6.33548C158.533 8.55039 157.232 11.9896 153.959 12.5174C151.385 12.9325 151.45 13.0279 151.45 8.89008V5.30384L153.455 5.40383C155.281 5.4952 155.534 5.57797 156.298 6.33548ZM1.77891 12.2141C0.849458 12.4776 -0.166185 14.0377 0.0369441 14.8899C0.46592 16.6863 1.96867 17.5398 3.5496 16.885C6.51568 15.6573 4.87729 11.3354 1.77891 12.2141Z" fill="#F2EDEE"/>
</svg>
