<svg width="196" height="76" viewBox="0 0 196 76" fill="none" xmlns="http://www.w3.org/2000/svg">
<g clip-path="url(#clip0_82_279)">
<path d="M97.6695 26.7969C96.7588 26.7969 95.9926 26.5928 95.3707 26.1846C94.749 25.7676 94.3111 25.2042 94.0571 24.4943L95.6072 23.5759C95.9662 24.5254 96.6712 25.0001 97.7221 25.0001C98.23 25.0001 98.6021 24.9069 98.8386 24.7206C99.075 24.5343 99.1932 24.2991 99.1932 24.0151C99.1932 23.6869 99.0487 23.4339 98.7598 23.2565C98.4708 23.0701 97.9541 22.8705 97.2097 22.6576C96.7981 22.5334 96.4479 22.4091 96.1589 22.2848C95.8786 22.1607 95.594 21.9966 95.3051 21.7925C95.0248 21.5795 94.8103 21.3133 94.6613 20.9938C94.5125 20.6744 94.4382 20.3017 94.4382 19.8759C94.4382 19.0329 94.7315 18.363 95.3182 17.8661C95.9136 17.3603 96.6273 17.1074 97.4593 17.1074C98.2037 17.1074 98.8561 17.2938 99.4166 17.6664C99.9857 18.0302 100.428 18.5404 100.743 19.197L99.2195 20.0888C98.8517 19.2902 98.265 18.8909 97.4593 18.8909C97.0827 18.8909 96.7851 18.9796 96.5661 19.1571C96.3559 19.3258 96.2509 19.5475 96.2509 19.8225C96.2509 20.1154 96.369 20.355 96.6055 20.5413C96.8507 20.7188 97.3148 20.914 97.9979 21.127C98.2782 21.2157 98.4883 21.2867 98.6284 21.3398C98.7773 21.3843 98.9744 21.4597 99.2195 21.5662C99.4735 21.6638 99.6661 21.7569 99.7975 21.8457C99.9377 21.9344 100.095 22.0542 100.27 22.205C100.446 22.3559 100.577 22.5111 100.664 22.6708C100.761 22.8306 100.84 23.0258 100.901 23.2565C100.971 23.4783 101.006 23.7223 101.006 23.9886C101.006 24.8492 100.695 25.5324 100.073 26.0382C99.4603 26.544 98.6591 26.7969 97.6695 26.7969Z" fill="#2A2926"/>
<path d="M111.175 25.3994C110.246 26.3311 109.117 26.7969 107.786 26.7969C106.455 26.7969 105.325 26.3311 104.397 25.3994C103.477 24.4589 103.017 23.3098 103.017 21.9521C103.017 20.5945 103.477 19.4499 104.397 18.5182C105.325 17.5777 106.455 17.1074 107.786 17.1074C109.117 17.1074 110.246 17.5777 111.175 18.5182C112.103 19.4499 112.567 20.5945 112.567 21.9521C112.567 23.3098 112.103 24.4589 111.175 25.3994ZM105.671 24.1483C106.24 24.7161 106.945 25.0001 107.786 25.0001C108.626 25.0001 109.331 24.7161 109.9 24.1483C110.47 23.5715 110.754 22.8395 110.754 21.9521C110.754 21.0648 110.47 20.3328 109.9 19.756C109.331 19.1793 108.626 18.8909 107.786 18.8909C106.945 18.8909 106.24 19.1793 105.671 19.756C105.101 20.3328 104.817 21.0648 104.817 21.9521C104.817 22.8395 105.101 23.5715 105.671 24.1483Z" fill="#2A2926"/>
<path d="M120.646 19.0499H116.968V21.2592H120.54V23.0162H116.968V26.6098H115.155V17.293H120.646V19.0499Z" fill="#2A2926"/>
<path d="M129.362 17.293V19.0499H126.879V26.6098H125.066V19.0499H122.597V17.293H129.362Z" fill="#2A2926"/>
<path d="M133.605 26.6098L131.03 17.293H132.935L134.695 24.2007L136.613 17.293H138.163L140.094 24.2007L141.854 17.293H143.76L141.184 26.6098H139.122L137.388 20.4607L135.667 26.6098H133.605Z" fill="#2A2926"/>
<path d="M151.509 26.6098L150.958 24.9328H147.293L146.741 26.6098H144.784L148.002 17.293H150.248L153.48 26.6098H151.509ZM147.87 23.2158H150.392L149.131 19.4092L147.87 23.2158Z" fill="#2A2926"/>
<path d="M160.73 26.6098L158.877 23.3755H157.499V26.6098H155.685V17.293H159.364C160.213 17.293 160.935 17.5947 161.531 18.198C162.127 18.8014 162.424 19.5289 162.424 20.3808C162.424 20.9575 162.262 21.4944 161.938 21.9913C161.615 22.4793 161.185 22.8476 160.651 23.096L162.686 26.6098H160.73ZM157.499 19.0099V21.765H159.364C159.705 21.765 159.999 21.6319 160.244 21.3657C160.489 21.0907 160.611 20.7623 160.611 20.3808C160.611 19.9993 160.489 19.6754 160.244 19.4092C159.999 19.1431 159.705 19.0099 159.364 19.0099H157.499Z" fill="#2A2926"/>
<path d="M166.881 24.8528H170.757V26.6098H165.069V17.293H170.69V19.0499H166.881V21.033H170.362V22.7632H166.881V24.8528Z" fill="#2A2926"/>
<path d="M98.1815 33.9307C99.4426 33.9307 100.493 34.3787 101.334 35.275C102.184 36.1711 102.608 37.2759 102.608 38.5891C102.608 39.9023 102.184 41.0069 101.334 41.9032C100.493 42.7993 99.4426 43.2475 98.1815 43.2475H94.5298V33.9307H98.1815ZM98.1815 41.4905C98.9785 41.4905 99.6266 41.2243 100.126 40.692C100.625 40.1507 100.874 39.4498 100.874 38.5891C100.874 37.7284 100.625 37.0318 100.126 36.4994C99.6266 35.9582 98.9785 35.6875 98.1815 35.6875H96.3425V41.4905H98.1815Z" fill="#2A2926"/>
<path d="M107.021 41.4905H110.896V43.2475H105.208V33.9307H110.83V35.6875H107.021V37.6706H110.502V39.4009H107.021V41.4905Z" fill="#2A2926"/>
<path d="M115.76 43.2475L112.673 33.9307H114.643L116.889 41.0913L119.122 33.9307H121.106L118.006 43.2475H115.76Z" fill="#2A2926"/>
<path d="M125.118 41.4905H128.993V43.2475H123.305V33.9307H128.927V35.6875H125.118V37.6706H128.599V39.4009H125.118V41.4905Z" fill="#2A2926"/>
<path d="M133.398 41.4905H136.905V43.2475H131.585V33.9307H133.398V41.4905Z" fill="#2A2926"/>
<path d="M146.421 42.0361C145.492 42.9678 144.363 43.4336 143.032 43.4336C141.7 43.4336 140.571 42.9678 139.642 42.0361C138.724 41.0954 138.264 39.9465 138.264 38.5889C138.264 37.2312 138.724 36.0866 139.642 35.1549C140.571 34.2144 141.7 33.7441 143.032 33.7441C144.363 33.7441 145.492 34.2144 146.421 35.1549C147.349 36.0866 147.813 37.2312 147.813 38.5889C147.813 39.9465 147.349 41.0954 146.421 42.0361ZM140.916 40.785C141.486 41.3529 142.192 41.6368 143.032 41.6368C143.872 41.6368 144.577 41.3529 145.146 40.785C145.716 40.2082 146 39.4762 146 38.5889C146 37.7015 145.716 36.9695 145.146 36.3928C144.577 35.816 143.872 35.5276 143.032 35.5276C142.192 35.5276 141.486 35.816 140.916 36.3928C140.348 36.9695 140.063 37.7015 140.063 38.5889C140.063 39.4762 140.348 40.2082 140.916 40.785Z" fill="#2A2926"/>
<path d="M153.829 33.9307C154.713 33.9307 155.458 34.2324 156.062 34.8357C156.667 35.4391 156.969 36.18 156.969 37.0584C156.969 37.9369 156.667 38.6778 156.062 39.2812C155.458 39.8845 154.713 40.1862 153.829 40.1862H152.214V43.2475H150.401V33.9307H153.829ZM153.829 38.4692C154.214 38.4692 154.534 38.3361 154.788 38.0699C155.043 37.7949 155.169 37.4577 155.169 37.0584C155.169 36.6502 155.043 36.3131 154.788 36.0469C154.534 35.7806 154.214 35.6476 153.829 35.6476H152.214V38.4692H153.829Z" fill="#2A2926"/>
<path d="M168.461 33.9307V43.2475H166.662V37.2048L164.073 41.5305H163.863L161.276 37.2181V43.2475H159.462V33.9307H161.328L163.969 38.3362L166.595 33.9307H168.461Z" fill="#2A2926"/>
<path d="M173.3 41.4905H177.175V43.2475H171.487V33.9307H177.109V35.6875H173.3V37.6706H176.781V39.4009H173.3V41.4905Z" fill="#2A2926"/>
<path d="M185.087 33.9307H186.899V43.2475H185.519L181.58 37.5509V43.2475H179.766V33.9307H181.146L185.087 39.6139V33.9307Z" fill="#2A2926"/>
<path d="M196 33.9307V35.6875H193.517V43.2475H191.705V35.6875H189.235V33.9307H196Z" fill="#2A2926"/>
<path d="M98.8911 60.0703C97.5075 60.0703 96.3647 59.6045 95.4627 58.6727C94.5607 57.741 94.1096 56.592 94.1096 55.2256C94.1096 53.8502 94.5607 52.7011 95.4627 51.7783C96.3647 50.8467 97.5075 50.3809 98.8911 50.3809C99.7231 50.3809 100.489 50.5805 101.19 50.9797C101.899 51.3701 102.451 51.9026 102.845 52.577L101.282 53.4953C101.054 53.0782 100.73 52.7544 100.31 52.5237C99.8894 52.2842 99.4165 52.1643 98.8911 52.1643C97.9979 52.1643 97.2754 52.4483 96.7237 53.0161C96.1807 53.584 95.9093 54.3205 95.9093 55.2256C95.9093 56.1217 96.1807 56.8538 96.7237 57.4217C97.2754 57.9896 97.9979 58.2735 98.8911 58.2735C99.4165 58.2735 99.8894 58.1581 100.31 57.9274C100.739 57.6879 101.063 57.3639 101.282 56.9557L102.845 57.8742C102.451 58.5486 101.904 59.0853 101.203 59.4847C100.502 59.8751 99.7318 60.0703 98.8911 60.0703Z" fill="#2A2926"/>
<path d="M112.919 58.6727C111.991 59.6045 110.861 60.0703 109.53 60.0703C108.199 60.0703 107.069 59.6045 106.141 58.6727C105.222 57.7322 104.762 56.5831 104.762 55.2256C104.762 53.868 105.222 52.7233 106.141 51.7917C107.069 50.8511 108.199 50.3809 109.53 50.3809C110.861 50.3809 111.991 50.8511 112.919 51.7917C113.847 52.7233 114.311 53.868 114.311 55.2256C114.311 56.5831 113.847 57.7322 112.919 58.6727ZM107.415 57.4217C107.984 57.9896 108.689 58.2735 109.53 58.2735C110.371 58.2735 111.076 57.9896 111.645 57.4217C112.214 56.8449 112.499 56.1128 112.499 55.2256C112.499 54.3382 112.214 53.6062 111.645 53.0295C111.076 52.4527 110.371 52.1643 109.53 52.1643C108.689 52.1643 107.984 52.4527 107.415 53.0295C106.846 53.6062 106.561 54.3382 106.561 55.2256C106.561 56.1128 106.846 56.8449 107.415 57.4217Z" fill="#2A2926"/>
<path d="M125.897 50.5674V59.8842H124.098V53.8415L121.51 58.1672H121.3L118.712 53.8548V59.8842H116.899V50.5674H118.764L121.405 54.9728L124.032 50.5674H125.897Z" fill="#2A2926"/>
<path d="M132.352 50.5674C133.237 50.5674 133.982 50.8691 134.585 51.4724C135.19 52.0758 135.492 52.8167 135.492 53.6952C135.492 54.5736 135.19 55.3145 134.585 55.9178C133.982 56.5212 133.237 56.8229 132.352 56.8229H130.737V59.8842H128.924V50.5674H132.352ZM132.352 55.106C132.738 55.106 133.058 54.9728 133.311 54.7066C133.565 54.4316 133.693 54.0945 133.693 53.6952C133.693 53.2869 133.565 52.9498 133.311 52.6837C133.058 52.4174 132.738 52.2843 132.352 52.2843H130.737V55.106H132.352Z" fill="#2A2926"/>
<path d="M142.961 59.8842L142.408 58.2071H138.744L138.192 59.8842H136.234L139.453 50.5674H141.699L144.93 59.8842H142.961ZM139.322 56.4901H141.844L140.583 52.6837L139.322 56.4901Z" fill="#2A2926"/>
<path d="M152.457 50.5674H154.27V59.8842H152.89L148.95 54.1876V59.8842H147.137V50.5674H148.517L152.457 56.2506V50.5674Z" fill="#2A2926"/>
<path d="M164.567 50.5674L161.414 56.2506V59.8842H159.615V56.2506L156.475 50.5674H158.523L160.52 54.4538L162.518 50.5674H164.567Z" fill="#2A2926"/>
<path d="M0 60.2458V20.6361L10.4476 14.4961V60.2458H0Z" fill="#2A2926"/>
<path fill-rule="evenodd" clip-rule="evenodd" d="M25.9703 29.0182H35.1221V18.8425H25.9703V5.40723L15.5227 11.4978V18.9109L15.5328 19.1625C15.5302 23.7272 15.5227 29.0182 15.5227 29.0182V46.0869C15.5227 51.7218 16.9806 55.6334 19.8961 57.8217C22.8656 60.01 27.941 60.6939 35.1221 59.8733V50.272C33.1243 50.3815 31.4506 50.4088 30.1008 50.3541C28.7509 50.2447 27.725 49.8617 27.0232 49.2053C26.3213 48.5488 25.9703 47.5093 25.9703 46.0869V29.0182Z" fill="#2A2926"/>
<path d="M1.51513 9.07761C2.56913 10.1011 3.79879 10.6128 5.20413 10.6128C6.65338 10.6128 7.88306 10.1011 8.89314 9.07761C9.94713 8.00966 10.4741 6.76371 10.4741 5.33977C10.4741 3.91583 9.94713 2.66989 8.89314 1.60193C7.88306 0.533977 6.65338 0 5.20413 0C3.79879 0 2.56913 0.533977 1.51513 1.60193C0.505042 2.66989 0 3.91583 0 5.33977C0 6.76371 0.505042 8.00966 1.51513 9.07761Z" fill="#2A2926"/>
<path d="M50.3809 75.7873H39.9102V17.9834H50.3809V75.7873Z" fill="#2A2926"/>
<path fill-rule="evenodd" clip-rule="evenodd" d="M60.6879 60.1125C72.1631 60.1125 81.4656 50.6868 81.4656 39.0597C81.4656 27.4326 72.1631 18.0068 60.6879 18.0068C49.2126 18.0068 39.9102 27.4326 39.9102 39.0597C39.9102 50.6868 49.2126 60.1125 60.6879 60.1125ZM60.6879 49.5861C66.4254 49.5861 71.0768 44.8732 71.0768 39.0597C71.0768 33.2461 66.4254 28.5333 60.6879 28.5333C54.9503 28.5333 50.2989 33.2461 50.2989 39.0597C50.2989 44.8732 54.9503 49.5861 60.6879 49.5861Z" fill="#2A2926"/>
</g>
<defs>
<clipPath id="clip0_82_279">
<rect width="196" height="75.7867" fill="white"/>
</clipPath>
</defs>
</svg>
