<svg width="173" height="173" viewBox="0 0 173 173" fill="none" xmlns="http://www.w3.org/2000/svg">
<g clip-path="url(#clip0_918_192)">
<path d="M173 0H0V173H173V0Z" fill="#F1DC50"/>
<path d="M86.5 79.292C86.5 113.526 86.5 132.748 86.5 136.959C86.5 143.275 82.7309 151.375 72.0833 151.375C54.8887 151.375 54.0625 136.959 54.0625 136.959M149.861 97.4284C145.535 90.143 139.801 86.5003 132.659 86.5003C121.506 86.5003 115.333 93.7087 115.333 100.917C115.333 108.125 118.937 115.334 133.415 118.938C142.627 121.231 151.375 126.146 151.375 136.959C151.375 147.771 141.893 151.375 133.354 151.375C122.442 151.375 115.234 146.57 111.729 136.959" stroke="white" stroke-width="2"/>
</g>
<defs>
<clipPath id="clip0_918_192">
<rect width="173" height="173" fill="white"/>
</clipPath>
</defs>
</svg>
