<svg width="196" height="51" viewBox="0 0 196 51" fill="none" xmlns="http://www.w3.org/2000/svg">
<g clip-path="url(#clip0_76_158)">
<path d="M-0.0698242 24.323H23.9346V0.293945H-0.0698242V24.323ZM7.2571 20.6208H3.62853L9.08534 9.69601L10.8996 13.3283L7.2571 20.6208ZM16.6495 20.6208L10.146 7.58648L11.9324 3.9961L20.306 20.6208H16.6495Z" fill="#162831"/>
<path d="M25.5815 24.323H49.5859V0.293945H25.5815V24.323ZM33.1178 4.02404C33.4794 4.02404 33.8329 4.13137 34.1335 4.33247C34.4342 4.53356 34.6685 4.81939 34.8069 5.1538C34.9453 5.48821 34.9815 5.85619 34.9109 6.2112C34.8404 6.5662 34.6663 6.8923 34.4106 7.14825C34.1549 7.40419 33.8291 7.5785 33.4745 7.64911C33.1198 7.71973 32.7522 7.68349 32.4182 7.54497C32.0841 7.40645 31.7986 7.17188 31.5977 6.87092C31.3968 6.56996 31.2896 6.21612 31.2896 5.85416C31.2896 5.36878 31.4822 4.90328 31.825 4.56007C32.1679 4.21685 32.6329 4.02404 33.1178 4.02404ZM43.8779 20.6208H40.2075V14.7812L43.864 11.2886L43.8779 20.6208ZM43.8779 9.02543L40.0679 12.6577L35.8113 16.5136L31.2896 20.6069V9.77983H34.8902V12.5739L43.8081 4.06595L43.8779 9.02543Z" fill="#162831"/>
<path d="M-0.0698242 49.9998H23.9346V25.9707H-0.0698242V49.9998ZM8.02468 29.7008C8.38351 29.7008 8.73429 29.8073 9.03264 30.0069C9.331 30.2064 9.56354 30.4901 9.70086 30.8219C9.83818 31.1538 9.87411 31.519 9.80411 31.8713C9.7341 32.2236 9.56131 32.5472 9.30758 32.8012C9.05384 33.0551 8.73057 33.2281 8.37863 33.2982C8.02669 33.3683 7.6619 33.3323 7.33038 33.1948C6.99887 33.0574 6.71551 32.8246 6.51616 32.5259C6.3168 32.2273 6.2104 31.8761 6.2104 31.5169C6.2104 31.0353 6.40154 30.5733 6.74179 30.2327C7.08203 29.8921 7.5435 29.7008 8.02468 29.7008ZM9.76919 46.2836H6.19644V35.3588H9.76919V46.2836ZM17.5985 33.3331H11.8626V29.6868H17.6683L17.5985 33.3331Z" fill="#162831"/>
<path d="M25.5815 49.9998H49.5859V25.9707H25.5815V49.9998ZM29.3078 46.5211L34.7646 35.5963L36.5789 39.2286L32.9085 46.5211H29.3078ZM37.6814 44.6631C37.3585 44.6631 37.0428 44.5672 36.7743 44.3876C36.5057 44.208 36.2965 43.9527 36.1729 43.654C36.0493 43.3554 36.0169 43.0267 36.08 42.7097C36.143 42.3926 36.2985 42.1013 36.5268 41.8727C36.7552 41.6442 37.0461 41.4885 37.3629 41.4254C37.6796 41.3623 38.0079 41.3947 38.3063 41.5184C38.6047 41.6421 38.8597 41.8516 39.0391 42.1204C39.2185 42.3892 39.3143 42.7053 39.3143 43.0285C39.3205 43.2552 39.2796 43.4806 39.194 43.6906C39.1085 43.9005 38.9803 44.0903 38.8176 44.248C38.6548 44.4057 38.4611 44.5277 38.2487 44.6064C38.0363 44.6851 37.8098 44.7186 37.5837 44.705M42.3009 46.563L35.7834 33.5287L37.5698 29.9383L45.9434 46.563H42.3009Z" fill="#162831"/>
<path d="M71.092 4.27539V17.0443H72.5295V23.9177H69.2498V20.2435H58.5874V4.27539H62.2718V16.9745H67.3658V4.27539H71.092Z" fill="#162831"/>
<path d="M83.8619 10.8135L77.7492 20.2435H74.4556V4.27539H78.14V13.8451H78.2097L84.3504 4.27539H87.658V20.2435H83.9736V10.8135H83.8619Z" fill="#162831"/>
<path d="M100.19 5.02947C101 5.05558 101.801 5.21122 102.563 5.49049C103.284 5.7531 103.951 6.14614 104.53 6.65003C105.111 7.14021 105.586 7.74395 105.926 8.42427C106.269 9.15354 106.441 9.9515 106.428 10.7573V13.0345C106.422 13.8414 106.241 14.6373 105.898 15.3675C105.565 16.0679 105.09 16.6912 104.503 17.1977C103.925 17.7145 103.258 18.1216 102.535 18.3991C101.769 18.6956 100.956 18.8517 100.134 18.8601V20.2572H96.5057V18.8601C95.6555 18.8107 94.8178 18.6317 94.0216 18.3293C93.3009 18.0548 92.6381 17.6473 92.0677 17.1278C91.5233 16.6357 91.0862 16.0365 90.7838 15.3675C90.4662 14.6266 90.3092 13.8267 90.3232 13.0205V10.7573C90.3038 9.93578 90.4808 9.1215 90.8396 8.38236C91.1793 7.70203 91.6542 7.0983 92.2352 6.60812C92.8233 6.11249 93.4942 5.72468 94.217 5.46255C94.9553 5.18779 95.7326 5.03218 96.5197 5.00153V4.10742H100.204L100.19 5.02947ZM93.896 12.783C93.8845 13.1591 93.9491 13.5336 94.0858 13.8841C94.2225 14.2346 94.4285 14.5539 94.6915 14.8227C94.9292 15.0716 95.2138 15.271 95.5288 15.4095C95.8418 15.5488 96.1777 15.6293 96.5197 15.647V8.29854C96.1789 8.31417 95.8434 8.38984 95.5288 8.52206C95.2131 8.65296 94.928 8.848 94.6915 9.09485C94.4417 9.3534 94.2429 9.65672 94.1053 9.98895C93.9524 10.361 93.8764 10.7602 93.882 11.1625L93.896 12.783ZM102.814 11.1764C102.838 10.8006 102.787 10.4237 102.662 10.0684C102.537 9.71312 102.342 9.38671 102.088 9.10882C101.587 8.61088 100.91 8.32993 100.204 8.32648V15.6609C100.899 15.6302 101.559 15.3471 102.06 14.8646C102.325 14.5952 102.53 14.2732 102.662 13.9194C102.794 13.5656 102.851 13.188 102.828 12.811L102.814 11.1764Z" fill="#162831"/>
<path d="M116.03 4.26064C116.82 4.24031 117.605 4.38792 118.333 4.69372C118.929 4.95337 119.459 5.34505 119.882 5.83929C120.281 6.31469 120.58 6.8659 120.761 7.45985C120.947 8.06638 121.042 8.69741 121.04 9.33189C121.038 9.96155 120.925 10.5859 120.706 11.176C120.481 11.7938 120.134 12.3597 119.686 12.8399C119.237 13.3201 118.696 13.7045 118.096 13.9701C117.409 14.2673 116.667 14.415 115.919 14.4031H112.723V20.2288H109.052V4.26064H116.03ZM112.723 11.176H115.43C115.701 11.2032 115.974 11.1696 116.23 11.0778C116.486 10.9859 116.718 10.8381 116.909 10.6451C117.208 10.2846 117.367 9.82815 117.356 9.35983C117.368 8.89364 117.215 8.4382 116.923 8.07455C116.73 7.87959 116.496 7.73064 116.237 7.63874C115.979 7.54684 115.703 7.51435 115.43 7.54368H112.723V11.176Z" fill="#162831"/>
<path d="M135.011 15.1862C135.031 15.9794 134.859 16.7658 134.508 17.4774C134.171 18.116 133.694 18.67 133.113 19.0979C132.519 19.5444 131.847 19.8761 131.131 20.0759C130.354 20.2942 129.551 20.4023 128.744 20.3972C127.942 20.4027 127.144 20.2945 126.372 20.0759C125.653 19.8747 124.976 19.5432 124.376 19.0979C123.794 18.671 123.317 18.1168 122.981 17.4774C122.63 16.7658 122.458 15.9794 122.478 15.1862V9.17897C122.457 8.38349 122.649 7.59686 123.036 6.9018C123.383 6.28155 123.859 5.74317 124.432 5.32315C125.039 4.90201 125.714 4.58998 126.428 4.4011C127.16 4.19913 127.915 4.09577 128.675 4.09375C129.44 4.09318 130.201 4.20137 130.936 4.41507C131.655 4.61955 132.335 4.94555 132.945 5.37903C133.523 5.80544 133.999 6.35398 134.341 6.98562C134.716 7.68974 134.904 8.47889 134.885 9.27676L135.011 15.1862ZM131.326 9.98925C131.338 9.5851 131.256 9.18372 131.089 8.81574C130.953 8.51941 130.753 8.25699 130.503 8.04737C130.26 7.85035 129.98 7.70319 129.68 7.61429C129.386 7.5235 129.08 7.47643 128.772 7.47458C128.46 7.47441 128.15 7.52151 127.851 7.61429C127.553 7.70668 127.273 7.85351 127.028 8.04737C126.771 8.25378 126.566 8.51675 126.428 8.81574C126.26 9.18372 126.179 9.5851 126.191 9.98925V14.5157C126.179 14.9198 126.26 15.3212 126.428 15.6892C126.566 15.9882 126.771 16.2511 127.028 16.4575C127.273 16.6514 127.553 16.7982 127.851 16.8906C128.15 16.9834 128.46 17.0305 128.772 17.0303C129.08 17.0285 129.386 16.9814 129.68 16.8906C129.98 16.8017 130.26 16.6546 130.503 16.4575C130.753 16.2479 130.953 15.9855 131.089 15.6892C131.256 15.3212 131.338 14.9198 131.326 14.5157V9.98925Z" fill="#162831"/>
<path d="M150.125 15.4651C150.129 16.1065 150.025 16.744 149.818 17.3511C149.628 17.9147 149.324 18.433 148.925 18.8738C148.538 19.306 148.062 19.6491 147.53 19.8797C146.89 20.1324 146.207 20.2559 145.52 20.2429H137.705V4.26081H145.143C145.872 4.24118 146.597 4.36458 147.278 4.62404C147.806 4.84349 148.282 5.17196 148.674 5.588C149.05 5.98588 149.331 6.46338 149.497 6.98504C149.669 7.52715 149.754 8.09292 149.749 8.66148C149.746 8.95915 149.704 9.25515 149.623 9.54162C149.533 9.85806 149.407 10.1628 149.246 10.4497C149.081 10.7474 148.874 11.0202 148.632 11.26C148.385 11.5075 148.097 11.7107 147.781 11.8607C148.154 12.0394 148.494 12.2803 148.786 12.5732C149.065 12.8459 149.304 13.1562 149.497 13.4952C149.679 13.8165 149.819 14.159 149.916 14.5151C150.004 14.8289 150.051 15.153 150.056 15.479M145.869 9.08059C145.886 8.67594 145.746 8.28033 145.478 7.97693C145.089 7.65331 144.587 7.49757 144.083 7.54385H141.291V10.4357H144.083C144.578 10.4811 145.073 10.3473 145.478 10.0585C145.619 9.93587 145.732 9.78316 145.806 9.61156C145.881 9.43995 145.917 9.25377 145.911 9.06662M146.078 15.3254C146.093 14.8674 145.939 14.42 145.646 14.068C145.466 13.8834 145.248 13.7412 145.006 13.6517C144.765 13.5623 144.506 13.5279 144.25 13.5511H141.305V16.9599H144.25C144.501 16.9825 144.753 16.9545 144.993 16.8777C145.233 16.801 145.455 16.6769 145.646 16.5128C145.8 16.3573 145.92 16.1715 146 15.9672C146.079 15.7629 146.115 15.5444 146.106 15.3254" fill="#162831"/>
<path d="M164.877 15.1862C164.897 15.9794 164.725 16.7658 164.374 17.4774C164.037 18.116 163.56 18.67 162.979 19.0979C162.385 19.5444 161.712 19.8761 160.997 20.0759C160.22 20.2942 159.417 20.4023 158.61 20.3972C157.808 20.4027 157.01 20.2945 156.238 20.0759C155.524 19.8728 154.852 19.5414 154.256 19.0979C153.674 18.6714 153.196 18.1171 152.861 17.4774C152.51 16.7658 152.337 15.9794 152.358 15.1862V9.17897C152.336 8.38349 152.529 7.59686 152.916 6.9018C153.263 6.28155 153.739 5.74317 154.312 5.32315C154.918 4.90176 155.594 4.58971 156.308 4.4011C157.04 4.19913 157.795 4.09577 158.555 4.09375C159.32 4.09318 160.081 4.20137 160.815 4.41507C161.535 4.61929 162.215 4.94532 162.825 5.37903C163.403 5.8051 163.879 6.35371 164.221 6.98562C164.596 7.68974 164.784 8.47889 164.765 9.27676L164.877 15.1862ZM161.192 9.98925C161.204 9.5851 161.122 9.18372 160.955 8.81574C160.819 8.51941 160.619 8.25699 160.369 8.04737C160.125 7.85065 159.846 7.70353 159.545 7.61429C159.252 7.52369 158.946 7.47663 158.638 7.47458C158.326 7.47441 158.015 7.52151 157.717 7.61429C157.418 7.70668 157.139 7.85351 156.894 8.04737C156.638 8.25413 156.432 8.51701 156.294 8.81574C156.126 9.18372 156.045 9.5851 156.056 9.98925V14.5157C156.045 14.9198 156.126 15.3212 156.294 15.6892C156.432 15.9882 156.637 16.2511 156.894 16.4575C157.139 16.6514 157.418 16.7982 157.717 16.8906C158.015 16.9834 158.326 17.0305 158.638 17.0303C158.946 17.0285 159.252 16.9814 159.545 16.8906C159.846 16.8014 160.125 16.6543 160.369 16.4575C160.619 16.2479 160.819 15.9855 160.955 15.6892C161.122 15.321 161.203 14.9198 161.192 14.5157V9.98925Z" fill="#162831"/>
<path d="M176.977 10.8131L170.864 20.2571H167.57V4.26097H171.255V13.8446L177.409 4.26097H180.717V20.2431H177.033V10.8131H176.977ZM174.269 3.74406C173.688 3.76674 173.11 3.6367 172.594 3.36686C172.171 3.13303 171.804 2.80868 171.52 2.41688C171.255 2.04702 171.053 1.63651 170.92 1.20145C170.799 0.813562 170.71 0.416399 170.655 0.0139704H172.971C172.974 0.184813 173.003 0.354263 173.055 0.516904C173.109 0.699859 173.188 0.874002 173.292 1.03381C173.396 1.20045 173.534 1.34326 173.697 1.45292C173.866 1.55962 174.062 1.61624 174.262 1.61624C174.462 1.61624 174.658 1.55962 174.827 1.45292C174.99 1.34326 175.128 1.20045 175.232 1.03381C175.336 0.873906 175.416 0.699789 175.469 0.516904C175.528 0.350474 175.561 0.176227 175.567 0L177.884 0C177.828 0.402417 177.739 0.799575 177.619 1.18748C177.486 1.62254 177.283 2.03305 177.019 2.40291C176.734 2.79441 176.367 3.11869 175.944 3.35289C175.428 3.62273 174.851 3.75277 174.269 3.73009" fill="#162831"/>
<path d="M58.9503 31.4616C59.646 30.9777 60.4204 30.6184 61.239 30.3999C62.1756 30.1432 63.143 30.0163 64.114 30.0227C64.8691 30.0185 65.621 30.122 66.347 30.33C67.0032 30.5124 67.6156 30.8261 68.1473 31.2521C68.6625 31.682 69.069 32.2277 69.3335 32.8447C69.6419 33.5684 69.7941 34.3492 69.7801 35.1359V41.1711C69.8035 41.9661 69.6259 42.7542 69.2638 43.4622C68.9248 44.0957 68.4478 44.6448 67.8682 45.0688C67.2703 45.5027 66.5989 45.8245 65.8864 46.0188C65.1413 46.2265 64.3711 46.33 63.5976 46.3261C62.6538 46.3235 61.7147 46.1919 60.8064 45.935C59.9275 45.7131 59.1111 45.2925 58.4199 44.7056L60.2063 41.9115C60.679 42.3327 61.2426 42.6387 61.8531 42.8056C62.3812 42.9478 62.9251 43.0229 63.472 43.0291C63.8212 43.0321 64.1689 42.9851 64.5048 42.8894C64.8064 42.8041 65.0869 42.6566 65.3282 42.4563C65.5721 42.2478 65.7633 41.9845 65.8864 41.688C66.0364 41.3155 66.1077 40.9159 66.0957 40.5144V39.5365H61.1553V36.3233H66.0957V35.8623C66.1073 35.4609 66.0361 35.0614 65.8864 34.6888C65.7629 34.3925 65.5717 34.1294 65.3282 33.9204C65.0866 33.7205 64.8062 33.573 64.5048 33.4873C64.1829 33.3934 63.8492 33.3463 63.5139 33.3476C63.0428 33.3481 62.5738 33.4091 62.1183 33.5293C61.569 33.6914 61.0537 33.9517 60.5971 34.2976L58.9503 31.4616Z" fill="#162831"/>
<path d="M72.5713 46.1025V30.1623H76.2557V36.3233H77.442C78.0019 36.3531 78.5587 36.2222 79.0469 35.9461C79.5271 35.5589 79.8657 35.0234 80.0099 34.4233L81.4055 30.1064H85.1317L83.7361 34.7726C83.5298 35.4768 83.2092 36.1423 82.7871 36.7424C82.4639 37.2203 82.0007 37.5864 81.4613 37.7902C82.0928 37.9844 82.6393 38.3885 83.0104 38.9357C83.4146 39.5555 83.7205 40.2341 83.9176 40.9475L85.4388 46.1025H81.3915L80.1215 41.5063C80.0155 40.8905 79.6754 40.3397 79.1725 39.9695C78.6646 39.7068 78.0969 39.5816 77.5257 39.6063H76.2278V46.1025H72.5713Z" fill="#162831"/>
<path d="M100.191 41.0866C100.211 41.8798 100.039 42.6662 99.6882 43.3778C99.3506 44.0161 98.8736 44.57 98.2926 44.9983C97.6985 45.4448 97.0265 45.7765 96.3109 45.9763C95.5343 46.1947 94.731 46.3029 93.9244 46.2976C93.1224 46.3033 92.3236 46.1951 91.5519 45.9763C90.8374 45.7735 90.1659 45.4421 89.5701 44.9983C88.9878 44.5714 88.5105 44.0172 88.1745 43.3778C87.8238 42.6662 87.6514 41.8798 87.6721 41.0866V35.0794C87.6504 34.2839 87.8432 33.4973 88.2303 32.8022C88.5771 32.1819 89.0531 31.6436 89.6259 31.2235C90.2324 30.8021 90.9078 30.4901 91.6216 30.3015C92.3536 30.0995 93.1093 29.9962 93.8686 29.9941C94.6336 29.9938 95.3948 30.1019 96.1294 30.3155C96.8493 30.5199 97.5289 30.8459 98.1391 31.2794C98.7166 31.7058 99.193 32.2544 99.5347 32.886C99.91 33.5901 100.098 34.3793 100.079 35.1772L100.191 41.0866ZM96.5063 35.9036C96.5175 35.4995 96.4363 35.0981 96.269 34.7301C96.1327 34.4338 95.9326 34.1713 95.6828 33.9617C95.4519 33.7694 95.1867 33.6225 94.9013 33.5286C94.6074 33.4379 94.3017 33.3908 93.9942 33.3889C93.6819 33.3888 93.3713 33.4359 93.0731 33.5286C92.7742 33.6207 92.495 33.7676 92.2497 33.9617C91.9931 34.1681 91.7878 34.4311 91.6495 34.7301C91.4822 35.0981 91.4011 35.4995 91.4123 35.9036V40.43C91.4011 40.8342 91.4822 41.2356 91.6495 41.6035C91.7878 41.9025 91.9931 42.1655 92.2497 42.3719C92.495 42.566 92.7742 42.7129 93.0731 42.805C93.3713 42.8978 93.6819 42.9449 93.9942 42.9447C94.3017 42.9428 94.6074 42.8958 94.9013 42.805C95.2015 42.7161 95.4813 42.5689 95.7247 42.3719C95.9744 42.1623 96.1746 41.8999 96.3109 41.6035C96.4782 41.2356 96.5594 40.8342 96.5481 40.43L96.5063 35.9036Z" fill="#162831"/>
<path d="M111.551 46.1442V39.6759H106.457V46.1442H102.772V30.1621H106.457V36.365H111.551V30.1621H115.291V46.1442H111.551Z" fill="#162831"/>
<path d="M130.377 41.0866C130.398 41.8798 130.226 42.6662 129.875 43.3778C129.537 44.0161 129.06 44.57 128.479 44.9983C127.885 45.4446 127.213 45.7762 126.498 45.9763C125.721 46.1947 124.918 46.3029 124.111 46.2976C123.309 46.3033 122.51 46.1951 121.739 45.9763C121.019 45.7748 120.343 45.4433 119.743 44.9983C119.161 44.5714 118.683 44.0172 118.347 43.3778C117.997 42.6662 117.824 41.8798 117.845 41.0866V35.0794C117.823 34.2839 118.016 33.4973 118.403 32.8022C118.75 32.1819 119.226 31.6436 119.799 31.2235C120.405 30.8021 121.081 30.4901 121.794 30.3015C122.526 30.0995 123.282 29.9962 124.041 29.9941C124.806 29.9938 125.568 30.1019 126.302 30.3155C127.052 30.5152 127.761 30.8463 128.396 31.2934C128.973 31.7198 129.45 32.2683 129.791 32.9C130.167 33.6041 130.354 34.3933 130.336 35.1911L130.377 41.0866ZM126.693 35.9036C126.704 35.4995 126.623 35.0982 126.456 34.7301C126.319 34.434 126.119 34.1717 125.87 33.9617C125.626 33.7647 125.346 33.6176 125.046 33.5286C124.752 33.4379 124.447 33.3908 124.139 33.3889C123.827 33.3888 123.516 33.4359 123.218 33.5286C122.919 33.6207 122.64 33.7676 122.395 33.9617C122.138 34.1685 121.933 34.4314 121.794 34.7301C121.627 35.0981 121.546 35.4995 121.557 35.9036V40.43C121.546 40.8342 121.627 41.2356 121.794 41.6035C121.933 41.9025 122.138 42.1655 122.395 42.3719C122.64 42.566 122.919 42.7129 123.218 42.805C123.516 42.8978 123.827 42.9449 124.139 42.9447C124.447 42.9428 124.752 42.8958 125.046 42.805C125.346 42.7161 125.626 42.5689 125.87 42.3719C126.119 42.1623 126.32 41.8999 126.456 41.6035C126.623 41.2354 126.704 40.8341 126.693 40.43V35.9036Z" fill="#162831"/>
<path d="M145.45 38.698L143.943 41.5759L142.547 44.0207H139.937L138.514 41.4921L137.09 38.726H136.993V46.1442H133.308V30.1621H136.685L139.337 35.3591L141.207 39.173H141.347L143.287 35.2194L145.813 30.1621H149.204V46.1442H145.52V38.698H145.45Z" fill="#162831"/>
<path d="M161.206 36.7142L155.456 46.1442H152.163V30.1621H155.847V39.7458H155.917L161.695 30.1621H165.002V46.1442H161.318V36.7142H161.206Z" fill="#162831"/>
<path d="M167.598 46.1025V30.1623H171.283V36.3233H172.469C173.029 36.3531 173.586 36.2222 174.074 35.9461C174.554 35.5589 174.893 35.0234 175.037 34.4233L176.432 30.1064H180.256L178.861 34.7726C178.654 35.4768 178.334 36.1423 177.912 36.7424C177.588 37.2203 177.125 37.5864 176.586 37.7902C177.217 37.9844 177.764 38.3885 178.135 38.9357C178.539 39.5555 178.845 40.2341 179.042 40.9475L180.577 46.1025H176.516L175.246 41.5063C175.14 40.8905 174.8 40.3397 174.297 39.9695C173.789 39.7075 173.221 39.5823 172.65 39.6063H171.352V46.1025H167.598Z" fill="#162831"/>
<path d="M191.519 36.7142L185.769 46.1442H182.475V30.1621H186.159V39.7458H186.229L192.007 30.1621H195.315V46.1442H191.63V36.7142H191.519Z" fill="#162831"/>
</g>
<defs>
<clipPath id="clip0_76_158">
<rect width="195.385" height="50" fill="white"/>
</clipPath>
</defs>
</svg>
