<svg width="42" height="42" viewBox="0 0 42 42" fill="none" xmlns="http://www.w3.org/2000/svg">
<path d="M38.7658 5.25488H3.23418C1.45316 5.25488 0 6.70805 0 8.48906V33.5118C0 35.2929 1.45316 36.746 3.23418 36.746H38.7658C40.5468 36.746 42 35.2929 42 33.5118V8.48906C42 6.70805 40.5468 5.25488 38.7658 5.25488ZM38.2962 7.64729L21.2215 22.2498L4.14684 7.64729H38.2962ZM39.6076 33.5118C39.6076 33.9726 39.2266 34.3536 38.7658 34.3536H3.23418C2.77342 34.3536 2.39241 33.9726 2.39241 33.5118V9.29539L20.4418 24.7308C20.4506 24.7397 20.4684 24.7486 20.4772 24.7574C20.4861 24.7663 20.5038 24.7751 20.5127 24.784C20.5392 24.8017 20.557 24.8194 20.5835 24.8283C20.5924 24.8372 20.6013 24.8372 20.6101 24.846C20.6456 24.8637 20.681 24.8815 20.7165 24.8992C20.7253 24.8992 20.7342 24.908 20.743 24.908C20.7696 24.9169 20.7962 24.9346 20.8316 24.9435C20.8405 24.9435 20.8582 24.9524 20.8671 24.9524C20.8937 24.9612 20.9203 24.9701 20.9468 24.9701C20.9557 24.9701 20.9734 24.9789 20.9823 24.9789C21.0089 24.9878 21.0443 24.9878 21.0709 24.9967C21.0797 24.9967 21.0886 24.9967 21.0975 24.9967C21.1329 24.9967 21.1772 25.0055 21.2127 25.0055C21.2481 25.0055 21.2924 25.0055 21.3278 24.9967C21.3367 24.9967 21.3456 24.9967 21.3544 24.9967C21.381 24.9967 21.4165 24.9878 21.443 24.9789C21.4519 24.9789 21.4696 24.9701 21.4785 24.9701C21.5051 24.9612 21.5316 24.9524 21.5582 24.9524C21.5671 24.9524 21.5848 24.9435 21.5937 24.9435C21.6203 24.9346 21.6468 24.9258 21.6823 24.908C21.6911 24.908 21.7 24.8992 21.7089 24.8992C21.7443 24.8815 21.7797 24.8637 21.8152 24.846C21.8241 24.8372 21.8329 24.8372 21.8418 24.8283C21.8684 24.8106 21.8861 24.8017 21.9127 24.784C21.9215 24.7751 21.9392 24.7663 21.9481 24.7574C21.957 24.7486 21.9747 24.7397 21.9835 24.7308L39.6076 9.6764V33.5118Z" fill="white"/>
</svg>
