<svg width="41" height="41" viewBox="0 0 41 41" fill="none" xmlns="http://www.w3.org/2000/svg">
<path d="M20.5001 0C11.8859 0 4.90356 6.98339 4.90356 15.5965C4.90356 20.7094 10.3988 30.4162 14.8652 37.4613C17.8567 42.1796 23.1435 42.1796 26.135 37.4613C30.6014 30.4151 36.0967 20.7094 36.0967 15.5965C36.0967 6.98238 29.1143 0 20.5001 0ZM20.5001 22.931C16.2168 22.931 12.7438 19.458 12.7438 15.1747C12.7438 10.8914 16.2168 7.4184 20.5001 7.4184C24.7834 7.4184 28.2564 10.8914 28.2564 15.1747C28.2564 19.458 24.7834 22.931 20.5001 22.931Z" fill="white"/>
</svg>
