<svg width="160" height="36" viewBox="0 0 160 36" fill="none" xmlns="http://www.w3.org/2000/svg">
<g filter="url(#filter0_d_69_1434)">
<path d="M145.492 7.70283C143.557 7.71387 141.668 8.29663 140.064 9.37754C138.46 10.4584 137.213 11.989 136.481 13.776C135.749 15.563 135.564 17.5263 135.95 19.4181C136.336 21.3098 137.275 23.0451 138.649 24.405C140.023 25.7648 141.77 26.6881 143.67 27.0585C145.569 27.4288 147.536 27.2294 149.323 26.4856C151.109 25.7418 152.634 24.4868 153.706 22.8792C154.777 21.2715 155.347 19.3833 155.344 17.4528C155.369 16.159 155.132 14.8735 154.645 13.6741C154.158 12.4746 153.432 11.3862 152.511 10.4747C151.59 9.56317 150.493 8.84753 149.287 8.37108C148.08 7.89464 146.789 7.66729 145.492 7.70283ZM145.492 23.3289C142.131 23.3289 139.89 20.9263 139.89 17.4528C139.89 13.9793 142.159 11.614 145.492 11.614C148.826 11.614 151.095 14.0259 151.095 17.4528C151.095 20.8797 148.826 23.3289 145.492 23.3289Z" fill="white"/>
<path d="M14.5244 7.70508C13.2368 7.70508 11.9619 7.958 10.7724 8.44938C9.58286 8.94077 8.50204 9.661 7.59161 10.569C6.68119 11.4769 5.959 12.5548 5.46629 13.7411C4.97357 14.9275 4.71997 16.1989 4.71997 17.483C4.71997 18.767 4.97357 20.0385 5.46629 21.2248C5.959 22.4112 6.68119 23.4891 7.59161 24.397C8.50204 25.305 9.58286 26.0252 10.7724 26.5166C11.9619 27.008 13.2368 27.2609 14.5244 27.2609C15.8119 27.2609 17.0868 27.008 18.2764 26.5166C19.4659 26.0252 20.5467 25.305 21.4571 24.397C22.3676 23.4891 23.0897 22.4112 23.5825 21.2248C24.0752 20.0385 24.3288 18.767 24.3288 17.483C24.3288 16.1989 24.0752 14.9275 23.5825 13.7411C23.0897 12.5548 22.3676 11.4769 21.4571 10.569C20.5467 9.661 19.4659 8.94077 18.2764 8.44938C17.0868 7.958 15.8119 7.70508 14.5244 7.70508ZM14.5244 23.3311C11.1535 23.3311 8.92186 20.9285 8.92186 17.4551C8.92186 13.9816 11.1909 11.6163 14.5244 11.6163C17.8579 11.6163 20.1269 14.0281 20.1269 17.4551C20.1269 20.882 17.8485 23.3311 14.5244 23.3311Z" fill="white"/>
<path d="M35.562 0.915039C33.8914 0.944119 32.2264 1.11547 30.5851 1.42722C30.0715 1.50172 29.8194 1.67865 29.8194 2.35845V4.88207C29.8194 5.208 29.9594 5.57119 30.4357 5.45944C32.0962 5.02155 33.807 4.80241 35.5246 4.80759C39.3343 4.80759 41.4913 6.88423 42.2943 10.395C41.2392 8.85844 39.5864 7.90857 36.8412 7.90857C31.6495 7.90857 26.9621 11.1958 26.9621 17.5468C26.9399 18.8394 27.1814 20.123 27.672 21.3197C28.1627 22.5163 28.8922 23.6009 29.8162 24.5076C30.7402 25.4143 31.8395 26.1242 33.0471 26.5941C34.2548 27.064 35.5456 27.284 36.8412 27.2409C43.7603 27.2409 46.8043 22.3147 46.8043 14.7904C46.8043 7.08909 43.8724 0.915039 35.562 0.915039ZM36.8412 23.3297C36.0772 23.3614 35.3151 23.2324 34.6043 22.9511C33.8936 22.6699 33.25 22.2428 32.7155 21.6975C32.1811 21.1521 31.7675 20.5008 31.5018 19.7857C31.2361 19.0706 31.1242 18.3078 31.1733 17.5468C31.1733 14.0733 33.4797 11.6707 36.8412 11.6707C40.2027 11.6707 42.4437 14.0733 42.4437 17.5468C42.4437 21.0203 40.2121 23.3297 36.8412 23.3297Z" fill="white"/>
<path d="M133.821 8.40234H118.769C118.367 8.40234 118.227 8.54204 118.227 8.95178V11.5033C118.227 11.9038 118.367 12.0528 118.769 12.0528H124.157V26.0212C124.157 26.431 124.297 26.5706 124.708 26.5706H127.817C128.218 26.5706 128.368 26.3937 128.368 26.0212V12.0528H133.821C134.222 12.0528 134.372 11.9038 134.372 11.5033V8.95178C134.372 8.54204 134.222 8.40234 133.821 8.40234Z" fill="white"/>
<path d="M89.2245 7.70508C87.9226 7.64894 86.6232 7.86221 85.408 8.33146C84.1928 8.80071 83.0882 9.5158 82.1637 10.4317C81.2392 11.3475 80.5149 12.4444 80.0363 13.6531C79.5577 14.8619 79.3352 16.1563 79.3828 17.4551C79.3828 24.0668 84.2103 27.2795 90.1489 27.2795C91.7717 27.3234 93.3936 27.1639 94.9764 26.8046C95.4527 26.6556 95.6394 26.5439 95.6394 25.9944V23.4429C95.6394 23.0424 95.4527 22.7538 94.9017 22.8562C93.4113 23.1902 91.891 23.3742 90.3637 23.4056C86.6287 23.4056 84.1729 22.0553 83.6313 18.8798H94.687C97.4322 18.8798 98.3473 18.1162 98.3473 15.4157C98.3473 10.9551 94.687 7.70508 89.2245 7.70508ZM83.6874 15.5554C83.8902 14.2655 84.5724 13.099 85.5985 12.288C86.6245 11.477 87.919 11.0809 89.2245 11.1786C92.0258 11.1786 94.0147 12.8175 94.2014 15.5554H83.6874Z" fill="white"/>
<path d="M115.809 8.40234H100.766C100.355 8.40234 100.215 8.54204 100.215 8.95178V11.5033C100.215 11.9038 100.355 12.0528 100.766 12.0528H106.144V26.0212C106.144 26.431 106.294 26.5706 106.695 26.5706H109.767C110.169 26.5706 110.318 26.3937 110.318 26.0212V12.0528H115.771C116.173 12.0528 116.322 11.9038 116.322 11.5033V8.95178C116.359 8.54204 116.21 8.40234 115.809 8.40234Z" fill="white"/>
<path d="M76.9647 23.1341C72.8282 23.1341 72.6508 19.9958 70.2697 17.3232L70.0923 17.1463C72.0158 12.6019 73.6873 11.5589 75.8349 11.5589H76.4512C76.7873 11.5589 76.89 11.4471 76.89 11.1957V8.70933C76.89 8.4579 76.89 8.19716 76.4885 8.12266C76.3111 8.12266 75.7602 8.12266 75.396 8.12266C71.661 8.12266 69.8869 9.17494 66.7028 15.7681C66.3181 15.7292 65.9316 15.7106 65.5449 15.7122H65.4702V8.99802C65.4702 8.58828 65.3208 8.44858 64.9193 8.44858H61.9967C61.5952 8.44858 61.4458 8.58828 61.4458 8.99802V15.6842H61.3711C60.9844 15.6827 60.5979 15.7013 60.2132 15.7401C57.0291 9.14701 55.2736 8.09473 51.52 8.09473C51.1558 8.09473 50.7916 8.09473 50.4275 8.09473C50.0633 8.09473 50.026 8.31821 50.026 8.68139V11.0933C50.026 11.382 50.1287 11.531 50.4648 11.531H51.0811C53.2287 11.531 54.9002 12.5739 56.8237 17.1183L56.6463 17.2953C54.2652 19.9679 54.0131 23.1061 50.11 23.1061C49.7738 23.1061 49.5964 23.2458 49.5964 23.6183V26.3189C49.5964 26.7193 49.7738 26.8683 50.138 26.8683C55.6658 26.8683 56.5529 23.4321 59.4755 19.8561C59.6877 19.5614 59.9685 19.3226 60.2939 19.1604C60.6193 18.9981 60.9793 18.9173 61.343 18.9249H61.4551V25.965C61.4551 26.3748 61.6045 26.5144 62.006 26.5144H64.9473C65.3488 26.5144 65.4982 26.3748 65.4982 25.965V18.9249H65.6103C65.974 18.9173 66.3341 18.9981 66.6594 19.1604C66.9848 19.3226 67.2657 19.5614 67.4778 19.8561C70.3724 23.4321 71.3902 26.8683 76.918 26.8683C77.3195 26.8683 77.3195 26.6076 77.3195 26.3934V23.5066C77.3289 23.1899 77.2635 23.1341 76.9647 23.1341Z" fill="white"/>
</g>
<defs>
<filter id="filter0_d_69_1434" x="0.719971" y="0.915039" width="158.625" height="34.3721" filterUnits="userSpaceOnUse" color-interpolation-filters="sRGB">
<feFlood flood-opacity="0" result="BackgroundImageFix"/>
<feColorMatrix in="SourceAlpha" type="matrix" values="0 0 0 0 0 0 0 0 0 0 0 0 0 0 0 0 0 0 127 0" result="hardAlpha"/>
<feOffset dy="4"/>
<feGaussianBlur stdDeviation="2"/>
<feComposite in2="hardAlpha" operator="out"/>
<feColorMatrix type="matrix" values="0 0 0 0 0 0 0 0 0 0 0 0 0 0 0 0 0 0 0.25 0"/>
<feBlend mode="normal" in2="BackgroundImageFix" result="effect1_dropShadow_69_1434"/>
<feBlend mode="normal" in="SourceGraphic" in2="effect1_dropShadow_69_1434" result="shape"/>
</filter>
</defs>
</svg>
