<svg width="150" height="232" viewBox="0 0 150 232" fill="none" xmlns="http://www.w3.org/2000/svg">
<path d="M170.955 75.9758C166.987 75.7904 163.204 76.6071 159.848 78.1969L138.753 55.0346C116.963 31.1098 79.9046 29.379 55.9798 51.1688C32.055 72.9586 30.3243 110.017 52.114 133.942L73.2094 157.104C71.3133 160.298 70.148 163.987 69.9627 167.956C69.3592 180.886 79.3508 191.857 92.2811 192.461L92.9216 178.748L95.5129 181.593C109.673 197.141 130.28 203.311 149.542 199.749L172.368 178.961L195.193 158.172C200.535 139.326 196.312 118.233 182.151 102.686L179.56 99.8406L193.274 100.481C193.878 87.5503 183.886 76.5797 170.955 75.9758Z" fill="#00347B"/>
<path d="M170.956 75.9759C166.987 75.7905 163.205 76.6073 159.849 78.1971L138.753 55.0347C116.963 31.1099 79.9053 29.3792 55.9805 51.1689C80.8362 78.4601 141.989 145.605 172.368 178.961L195.194 158.172C200.536 139.326 196.312 118.234 182.152 102.686L179.561 99.8407L193.275 100.481C193.879 87.5504 183.887 76.5798 170.956 75.9759Z" fill="#001B3C"/>
<path d="M86.5362 62.9655C82.2927 66.8304 80.0476 72.0681 79.8549 77.3839C74.5439 77.0807 69.1201 78.8274 64.8766 82.6922C56.503 90.3186 55.8972 103.289 63.5236 111.663L128.622 183.14C135.075 190.225 143.761 194.06 152.629 194.561L189.739 160.762C190.067 151.886 187.058 142.881 180.605 135.795L115.507 64.3185C107.88 55.9449 94.9098 55.3391 86.5362 62.9655Z" fill="white"/>
<path d="M82.4375 106.324C84.8299 104.145 85.003 100.439 82.8241 98.0467C80.6451 95.6542 76.9392 95.4812 74.5468 97.6601C72.1543 99.8391 71.9812 103.545 74.1602 105.937C76.3392 108.33 80.045 108.503 82.4375 106.324Z" fill="#001B3C"/>
<path d="M108.43 82.6521C110.822 80.4731 110.995 76.7673 108.816 74.3748C106.637 71.9824 102.931 71.8093 100.539 73.9882C98.1465 76.1672 97.9734 79.8731 100.152 82.2655C102.331 84.658 106.037 84.8311 108.43 82.6521Z" fill="#001B3C"/>
<path d="M99.3786 98.8202L94.2735 119.32L119.105 120.48L120.265 95.648L99.3786 98.8202Z" fill="#FF9811"/>
<path d="M99.3789 98.8203L120.265 95.6481L119.106 120.48L99.3789 98.8203Z" fill="#FF5023"/>
<path d="M173.722 149.99C167.196 155.933 164.802 164.716 166.701 172.737C158.891 170.099 149.924 171.664 143.398 177.607C133.828 186.323 133.136 201.147 141.852 210.716L174.341 181.126L206.831 151.536C198.115 141.966 183.292 141.274 173.722 149.99Z" fill="#FF9811"/>
</svg>
