<svg width="63" height="55" viewBox="0 0 63 55" fill="none" xmlns="http://www.w3.org/2000/svg">
<path d="M44.0736 0H18.9266C16.738 0 14.9561 1.55574 14.9561 3.46635V51.5336C14.9561 53.4443 16.7381 54.9999 18.9266 54.9999H44.0736C46.2622 54.9999 48.0442 53.4442 48.0442 51.5336V3.46635C48.0442 1.55574 46.2632 0 44.0736 0ZM44.0736 53.6134H18.9266C17.7428 53.6134 16.7644 52.8527 16.5824 51.8617C17.1531 52.8324 18.2988 53.5034 19.6318 53.5034H43.3684C44.7015 53.5034 45.8472 52.8314 46.4178 51.8617C46.2357 52.8527 45.2573 53.6134 44.0736 53.6134ZM28.9461 2.56784C28.9842 2.65841 29.0838 2.71757 29.1928 2.71757H33.5172C33.6336 2.71757 33.7363 2.65107 33.7702 2.55392L33.947 2.04739C33.9576 2.01597 33.9406 1.98823 33.9364 1.95681H43.3674C44.9736 1.95681 46.2792 3.0966 46.2792 4.49884V50.4992C46.2792 51.9015 44.9736 53.0413 43.3674 53.0413H19.6317C18.0255 53.0413 16.7199 51.9015 16.7199 50.4992V4.49981C16.7199 3.09757 18.0255 1.95778 19.6317 1.95778H28.7301C28.7259 1.99287 28.7111 2.02622 28.7269 2.06131L28.9461 2.56784ZM29.2469 1.95778H33.425L33.3202 2.25541H29.3751L29.2469 1.95778ZM43.3684 1.49562H19.6317C18.2987 1.49562 17.153 2.16764 16.5823 3.1373C16.7644 2.14724 17.7427 1.38561 18.9265 1.38561H44.0735C45.2572 1.38561 46.2355 2.14637 46.4177 3.1373C45.8472 2.16764 44.7015 1.49562 43.3684 1.49562Z" fill="white"/>
<path d="M17.7354 5.89254V45.987C17.7354 46.1783 17.9132 46.3337 18.1324 46.3337H44.5374C44.7565 46.3337 44.9345 46.1784 44.9345 45.987V5.89254C44.9345 5.70124 44.7566 5.5459 44.5374 5.5459H18.1324C17.9132 5.5459 17.7354 5.70114 17.7354 5.89254ZM18.5295 6.23919H44.1403V45.6405H18.5295V6.23919Z" fill="white"/>
<path d="M32.2284 48.3564H30.7058C29.9753 48.3564 29.3823 48.875 29.3823 49.5119V49.9167C29.3823 50.5536 29.9753 51.0722 30.7058 51.0722H32.2284C32.958 51.0722 33.552 50.5536 33.552 49.9167V49.5119C33.5521 48.8741 32.958 48.3564 32.2284 48.3564ZM33.0226 49.9159C33.0226 50.2976 32.6657 50.6092 32.2284 50.6092H30.7058C30.2686 50.6092 29.9117 50.2976 29.9117 49.9159V49.511C29.9117 49.1293 30.2686 48.8177 30.7058 48.8177H32.2284C32.6657 48.8177 33.0226 49.1293 33.0226 49.511V49.9159Z" fill="white"/>
<path d="M37.8307 4.12213C38.257 4.12213 38.6026 3.82044 38.6026 3.44827C38.6026 3.07611 38.257 2.77441 37.8307 2.77441C37.4044 2.77441 37.0588 3.07611 37.0588 3.44827C37.0588 3.82044 37.4044 4.12213 37.8307 4.12213Z" fill="white"/>
<path d="M39.9919 49.3906H39.4614V49.2168L38.8896 49.5043L39.4614 49.7927V49.6226H39.9919C40.6504 49.6226 40.9184 49.6485 40.9184 49.911C40.9184 50.1865 40.7861 50.1993 40.3667 50.1993H39.6828C39.6097 50.1993 39.5505 50.251 39.5505 50.3148C39.5505 50.3786 39.6097 50.4303 39.6828 50.4303H40.3667C40.731 50.4303 41.1831 50.4303 41.1831 49.9109C41.1831 49.3914 40.5763 49.3906 39.9919 49.3906Z" fill="white"/>
<path d="M23.4934 48.9629H22.2026C22.1296 48.9629 22.0703 49.0147 22.0703 49.0784V50.1765C22.0703 50.2403 22.1296 50.292 22.2026 50.292H23.4934C23.5665 50.292 23.6257 50.2403 23.6257 50.1765V49.0784C23.6257 49.0147 23.5665 48.9629 23.4934 48.9629ZM23.3611 50.0601H22.3351V49.5979H22.7988V49.1931H23.3611V50.0601Z" fill="white"/>
</svg>
