<svg width="174" height="174" viewBox="0 0 174 174" fill="none" xmlns="http://www.w3.org/2000/svg">
<path d="M86.2625 0.388672C42.1968 0.388675 44.9486 19.4982 44.9486 19.4982L44.9977 39.2955H87.0485V45.2396H28.2953C28.2953 45.2396 0.0976563 42.0417 0.0976563 86.5044C0.0976531 130.967 24.7092 129.39 24.7092 129.39H39.3975V108.758C39.3975 108.758 38.6057 84.1464 63.616 84.1464H105.323C105.323 84.1464 128.755 84.5252 128.755 61.4999V23.4282C128.755 23.4282 132.313 0.388672 86.2625 0.388672ZM63.0756 13.7015C67.2594 13.7015 70.6409 17.083 70.6409 21.2667C70.6409 25.4505 67.2594 28.8319 63.0756 28.8319C58.8919 28.8319 55.5104 25.4505 55.5104 21.2667C55.5104 17.083 58.8919 13.7015 63.0756 13.7015Z" fill="url(#paint0_linear_918_197)"/>
<path d="M87.5137 173.066C131.579 173.066 128.828 153.957 128.828 153.957L128.779 134.159H86.7277V128.215H145.481C145.481 128.215 173.679 131.413 173.679 86.9505C173.679 42.4878 149.067 44.0645 149.067 44.0645H134.379V64.6969C134.379 64.6969 135.17 89.3085 110.16 89.3085H68.4533C68.4533 89.3085 45.0208 88.9297 45.0208 111.955V150.027C45.0208 150.027 41.463 173.066 87.5137 173.066ZM110.701 159.753C106.517 159.753 103.135 156.372 103.135 152.188C103.135 148.004 106.517 144.623 110.701 144.623C114.884 144.623 118.266 148.004 118.266 152.188C118.266 156.372 114.884 159.753 110.701 159.753Z" fill="url(#paint1_linear_918_197)"/>
<defs>
<linearGradient id="paint0_linear_918_197" x1="16.7791" y1="15.9205" x2="102.8" y2="101.083" gradientUnits="userSpaceOnUse">
<stop stop-color="#387EB8"/>
<stop offset="1" stop-color="#366994"/>
</linearGradient>
<linearGradient id="paint1_linear_918_197" x1="69.5783" y1="70.6065" x2="161.955" y2="157.933" gradientUnits="userSpaceOnUse">
<stop stop-color="#FFE052"/>
<stop offset="1" stop-color="#FFC331"/>
</linearGradient>
</defs>
</svg>
