<svg width="161" height="181" viewBox="0 0 161 181" fill="none" xmlns="http://www.w3.org/2000/svg">
<path d="M160.992 53.1995C160.991 50.1569 160.34 47.4683 159.024 45.1609C157.731 42.8919 155.795 40.9901 153.199 39.4864C131.765 27.1277 110.311 14.8069 88.8844 2.43556C83.1079 -0.89931 77.5072 -0.777733 71.7735 2.60502C63.2423 7.63631 20.5296 32.1074 7.80174 39.4795C2.56006 42.5139 0.00944902 47.1578 0.00818915 53.1938C0 78.0479 0.00818915 102.901 0 127.756C0 130.732 0.624265 133.368 1.88225 135.641C3.1755 137.979 5.13838 139.933 7.79481 141.47C20.5233 148.842 63.2417 173.312 71.771 178.344C77.5072 181.729 83.1079 181.85 88.8863 178.514C110.314 166.142 131.769 153.822 153.206 141.463C155.862 139.926 157.825 137.97 159.118 135.635C160.374 133.362 161 130.726 161 127.749C161 127.749 161 78.0542 160.992 53.1995Z" fill="#A179DC"/>
<path d="M80.7469 90.2324L1.88281 135.641C3.17607 137.978 5.13895 139.932 7.79538 141.47C20.5238 148.842 63.2422 173.311 71.7716 178.344C77.5077 181.729 83.1085 181.85 88.8869 178.513C110.314 166.141 131.77 153.821 153.206 141.463C155.863 139.925 157.826 137.97 159.119 135.634L80.7469 90.2324Z" fill="#280068"/>
<path d="M160.992 53.1997C160.99 50.1571 160.34 47.4686 159.024 45.1611L80.7461 90.233L159.118 135.635C160.374 133.362 160.999 130.726 161 127.749C161 127.749 161 78.0544 160.992 53.1997Z" fill="#390091"/>
<path d="M127.179 73.2578V81.7454H135.666V73.2578H139.91V81.7454H148.397V85.9891H139.91V94.4767H148.397V98.7204H139.91V107.208H135.666V98.7204H127.179V107.208H122.935V98.7204H114.447V94.4767H122.935V85.9891H114.447V81.7454H122.935V73.2578H127.179ZM135.666 85.9891H127.179V94.4767H135.666V85.9891Z" fill="white"/>
<path d="M80.9184 30.6309C103.057 30.6309 122.385 42.654 132.738 60.5251L132.637 60.3531L106.59 75.3507C101.458 66.6617 92.0502 60.7979 81.2583 60.6772L80.9184 60.6753C64.461 60.6753 51.1186 74.0169 51.1186 90.4743C51.1186 95.8562 52.5535 100.901 55.0488 105.259C60.1853 114.226 69.8415 120.274 80.9184 120.274C92.0637 120.274 101.775 114.149 106.885 105.086L106.761 105.303L132.769 120.37C122.53 138.09 103.466 150.076 81.585 150.315L80.9184 150.318C58.7103 150.318 39.3268 138.221 29.0001 120.256C23.9587 111.485 21.0742 101.317 21.0742 90.4743C21.0742 57.4241 47.8668 30.6309 80.9184 30.6309Z" fill="white"/>
</svg>
