<svg width="211" height="81" viewBox="0 0 211 81" fill="none" xmlns="http://www.w3.org/2000/svg">
<path d="M39.1966 25.9648C33.2009 25.9648 28.236 31.0074 27.4349 37.5373H21.0259C16.4029 37.5373 12.581 41.495 12.0758 46.563H7.3099C3.58495 46.563 0.553955 49.9909 0.553955 54.1982V66.6672H7.3099C9.13666 66.6672 10.7899 65.8623 12.0095 64.5584V70.197H21.0208C23.465 70.197 25.6795 69.1121 27.3022 67.3599V73.7268H39.1914C45.7382 73.7268 51.0654 67.8438 51.0654 60.611V25.9648H39.1914H39.1966ZM7.3099 64.6654H2.55931V54.1982C2.55931 51.0963 4.68713 48.5699 7.3099 48.5699H12.0095V59.964C11.688 62.6178 9.70817 64.6654 7.3099 64.6654ZM21.0208 67.528H14.6884V47.7091C14.6884 43.5783 17.5306 40.2114 21.0208 40.2114H27.3022V61.0235C26.9705 64.6756 24.2764 67.528 21.0208 67.528ZM47.5344 60.6161C47.5344 65.9031 43.7941 70.202 39.1966 70.202H30.8435V39.3862C30.8435 33.9362 34.5889 29.4997 39.1966 29.4997H47.5344V60.611V60.6161Z" fill="#00ABDB"/>
<path d="M14.0506 36.9933V34.5637H21.0209C25.9705 34.5637 30.0016 30.1782 30.0016 24.7791V21.4021H39.1915C45.723 21.4021 51.04 15.6108 51.04 8.49509V0.493164H39.1915C32.6499 0.493164 27.3278 6.39656 27.3278 13.6548V18.7229H21.0209C16.0662 18.7229 12.0249 23.195 12.0249 28.696V32.4448H7.31508C3.59523 32.4448 0.569336 35.8015 0.569336 39.9272V44.3433H7.31508C11.0349 44.3433 14.0558 41.0477 14.0558 36.9984L14.0506 36.9933ZM30.8691 13.6548C30.8691 8.34228 34.6042 4.02297 39.1966 4.02297H47.5089V8.50018C47.5089 13.6701 43.7789 17.8773 39.1966 17.8773H30.8691V13.6498V13.6548ZM14.7139 28.696C14.7139 24.667 17.551 21.3969 21.026 21.3969H27.3278V24.7893C27.3278 28.7113 24.5009 31.8998 21.026 31.8998H14.7139V28.696ZM2.5798 39.9272C2.5798 36.9119 4.70251 34.4466 7.31508 34.4466H12.03V34.5688H12.0453V36.9984C12.0453 39.9425 9.92255 42.3365 7.30997 42.3365H2.5798V39.9272Z" fill="#00ABDB"/>
<path d="M197.129 29.7511C198.339 28.7222 199.778 28.2077 201.457 28.2077C203.135 28.2077 204.6 28.7324 205.784 29.7868C206.968 30.8411 207.616 32.1858 207.733 33.8157H194.823C195.155 32.1298 195.925 30.7749 197.135 29.7461L197.129 29.7511ZM208.055 28.4319C206.305 26.6899 204.141 25.8189 201.569 25.8189C198.859 25.8189 196.563 26.7664 194.681 28.6611C192.803 30.5559 191.858 32.8785 191.858 35.6239C191.858 37.04 192.113 38.3745 192.625 39.6173C193.135 40.8601 193.828 41.9246 194.706 42.8058C195.584 43.6871 196.619 44.3848 197.813 44.8941C199.007 45.4035 200.273 45.6582 201.604 45.6582C203.534 45.6582 205.263 45.2762 206.784 44.5071C208.304 43.743 209.433 42.6988 210.162 41.3848L207.896 39.928C207.346 40.9009 206.518 41.6649 205.412 42.2251C204.304 42.7854 203.059 43.0656 201.681 43.0656C199.697 43.0656 198.058 42.4238 196.763 41.1402C195.467 39.8566 194.756 38.1605 194.645 36.0569H210.606C210.657 35.5475 210.682 35.1502 210.682 34.8701C210.682 32.3183 209.805 30.1687 208.055 28.4268V28.4319ZM185.852 26.7561C184.868 27.3826 184.118 28.2077 183.608 29.2264V26.2213H180.729V45.2762H183.608V32.14C184.194 31.0143 184.965 30.1178 185.909 29.4506C186.853 28.7783 187.761 28.4472 188.634 28.4472C189.374 28.4472 190.057 28.5695 190.685 28.8088L190.838 26.1093C190.185 25.9157 189.516 25.8241 188.823 25.8241C187.822 25.8241 186.833 26.1347 185.848 26.7612L185.852 26.7561ZM161.738 40.8805C160.365 39.495 159.676 37.7683 159.676 35.7003C159.676 33.6323 160.365 31.9108 161.738 30.5406C163.11 29.1705 164.824 28.4828 166.871 28.4828C168.151 28.4828 169.366 28.8139 170.524 29.471C171.683 30.128 172.534 30.9786 173.086 32.0279V39.5155C172.524 40.5137 171.662 41.3337 170.493 41.9858C169.33 42.6378 168.121 42.9637 166.865 42.9637C164.82 42.9637 163.11 42.271 161.732 40.8856L161.738 40.8805ZM173.086 29.1908C172.561 28.2332 171.662 27.4336 170.391 26.7867C169.121 26.1399 167.794 25.8189 166.412 25.8189C163.702 25.8189 161.431 26.7612 159.599 28.6509C157.773 30.5406 156.855 32.8887 156.855 35.7003C156.855 38.5119 157.767 40.8856 159.599 42.7957C161.426 44.7057 163.697 45.6582 166.412 45.6582C167.779 45.6582 169.096 45.3373 170.366 44.6904C171.631 44.0435 172.54 43.2438 173.091 42.2863V45.2762H175.949V26.2213H173.091V29.1908H173.086ZM135.8 45.2762L141.23 30.3012L146.638 45.2762H148.997L155.997 26.2213H152.966L147.822 41.1606L142.434 26.2213H140.001L134.667 41.1606L129.525 26.2213H126.493L133.479 45.2762H135.8ZM123.248 42.8466C122.043 42.8466 121.059 42.4594 120.283 41.6903C119.508 40.9161 119.126 39.8566 119.126 38.5018V28.8903H124.498V26.2264H119.126V20.9597H116.288V26.2264H112.491V28.8903H116.288V38.6189C116.288 40.7633 116.895 42.4442 118.11 43.6565C119.324 44.8687 120.916 45.4748 122.886 45.4748C123.549 45.4748 124.157 45.373 124.707 45.1692L124.498 42.6581C124.115 42.7854 123.697 42.8516 123.253 42.8516L123.248 42.8466ZM110.808 19.9817L111.017 17.4707C110.465 17.2669 109.859 17.165 109.195 17.165C107.226 17.165 105.634 17.7762 104.419 19.0038C103.205 20.2313 102.597 21.9122 102.597 24.0616V26.2264H98.8011V28.8903H102.597V45.2813H105.434V28.8801H110.808V26.2163H105.434V24.1278C105.434 22.7883 105.822 21.7288 106.603 20.9495C107.384 20.1702 108.369 19.7831 109.557 19.7831C110.007 19.7831 110.419 19.8494 110.802 19.9767L110.808 19.9817ZM93.0249 30.6221C94.3872 32.0076 95.0658 33.7139 95.0658 35.7462C95.0658 37.7785 94.3822 39.4696 93.0146 40.8703C91.6471 42.2659 89.9683 42.9688 87.9885 42.9688C86.0086 42.9688 84.335 42.271 82.9827 40.8805C81.6254 39.4899 80.9467 37.7785 80.9467 35.7462C80.9467 33.7139 81.6254 31.9923 82.9827 30.6119C84.34 29.2316 86.0086 28.544 87.9885 28.544C89.9683 28.544 91.6624 29.2367 93.0249 30.6221ZM78.13 35.7462C78.13 38.5425 79.0792 40.8958 80.9774 42.8007C82.8755 44.7108 85.2126 45.6632 87.9885 45.6632C90.7643 45.6632 93.1065 44.7108 95.02 42.8007C96.9335 40.8906 97.8877 38.5374 97.8877 35.7462C97.8877 32.9549 96.9335 30.5967 95.02 28.6916C93.1065 26.7867 90.7643 25.8291 87.9885 25.8291C85.2126 25.8291 82.8755 26.7816 80.9774 28.6916C79.0792 30.6017 78.13 32.9549 78.13 35.7462ZM73.8183 44.1047C75.1552 43.0656 75.8237 41.7311 75.8237 40.1114C75.8237 39.113 75.6145 38.2624 75.191 37.5442C74.7674 36.8311 74.2214 36.281 73.553 35.899C72.8794 35.517 72.1345 35.1961 71.318 34.9414C70.5016 34.6868 69.68 34.4678 68.8636 34.2793C68.0472 34.0959 67.3022 33.8922 66.6287 33.6681C65.9551 33.4439 65.4091 33.1333 64.9907 32.7308C64.5671 32.3284 64.358 31.8191 64.358 31.2079C64.358 30.3012 64.7151 29.578 65.4244 29.0329C66.1337 28.4879 67.0777 28.218 68.2564 28.218C69.2259 28.218 70.2464 28.4217 71.318 28.8292C72.3844 29.2367 73.2315 29.7817 73.8592 30.4591L75.2011 28.2944C74.4715 27.5049 73.502 26.8937 72.2926 26.4658C71.0833 26.0379 69.8127 25.8241 68.486 25.8241C66.3991 25.8241 64.7151 26.3384 63.4191 27.3674C62.1281 28.3963 61.48 29.7409 61.48 31.3963C61.48 32.3539 61.6892 33.1689 62.1128 33.8463C62.5363 34.5237 63.0823 35.0382 63.7507 35.3896C64.4243 35.7411 65.1641 36.0366 65.9755 36.2709C66.7868 36.5052 67.5981 36.714 68.4145 36.8922C69.226 37.0706 69.9658 37.2794 70.6394 37.5137C71.3129 37.748 71.8589 38.0893 72.2773 38.5272C72.7008 38.9653 72.91 39.5205 72.91 40.1827C72.91 41.074 72.5121 41.8176 71.7211 42.4035C70.9302 42.9892 69.8841 43.2846 68.5932 43.2846C67.4655 43.2846 66.3123 43.0503 65.1183 42.5766C63.9293 42.103 62.9649 41.4968 62.2199 40.7583L60.9341 42.923C61.8423 43.7532 62.9955 44.4154 64.3885 44.9146C65.7816 45.4137 67.195 45.6632 68.6288 45.6632C70.7516 45.6632 72.4814 45.1437 73.8183 44.1047Z" fill="#404040"/>
<path d="M182.633 69.5923L176.398 54.2354H173.291L181.174 72.9439L177.872 80.5077H180.944L191.996 54.2354H188.924L182.633 69.5923ZM166.514 54.7702C165.529 55.3967 164.779 56.2219 164.268 57.2406V54.2354H161.391V73.2902H164.268V60.1541C164.855 59.0284 165.626 58.132 166.57 57.4647C167.514 56.7923 168.423 56.4613 169.295 56.4613C170.035 56.4613 170.719 56.5835 171.346 56.8229L171.499 54.1233C170.846 53.9298 170.177 53.8381 169.483 53.8381C168.483 53.8381 167.493 54.1488 166.508 54.7753L166.514 54.7702ZM157.064 70.8556C155.86 70.8556 154.875 70.4684 154.099 69.6993C153.323 68.9251 152.941 67.8656 152.941 66.5108V56.8993H158.313V54.2354H152.941V48.9688H150.103V54.2354H146.307V56.8993H150.103V66.6279C150.103 68.7723 150.711 70.4531 151.925 71.6655C153.139 72.8777 154.731 73.4839 156.701 73.4839C157.365 73.4839 157.972 73.3819 158.522 73.1782L158.313 70.6722C157.931 70.7995 157.512 70.8658 157.069 70.8658L157.064 70.8556ZM132.565 54.7396C131.356 55.3458 130.438 56.1658 129.81 57.1998V54.2303H126.932V73.2852H129.81V59.9962C130.387 58.9622 131.229 58.1421 132.331 57.536C133.433 56.9299 134.621 56.6243 135.888 56.6243C137.561 56.6243 138.914 57.1744 139.934 58.2796C140.955 59.385 141.469 60.8569 141.469 62.6958V73.2852H144.348V62.3137C144.348 59.7466 143.633 57.6939 142.199 56.1455C140.766 54.6022 138.862 53.8279 136.484 53.8279C135.076 53.8279 133.77 54.1336 132.561 54.7396H132.565ZM119.268 67.4837C118.681 68.5176 117.834 69.3428 116.736 69.9642C115.634 70.5856 114.456 70.8912 113.185 70.8912C111.512 70.8912 110.16 70.3411 109.139 69.2359C108.113 68.1305 107.603 66.6585 107.603 64.8197V54.2303H104.725V65.2017C104.725 67.7435 105.445 69.7859 106.884 71.3395C108.323 72.893 110.226 73.6672 112.594 73.6672C113.986 73.6672 115.298 73.3564 116.527 72.7401C117.758 72.1188 118.671 71.3089 119.273 70.3004V73.2902H122.151V54.2354H119.273V67.4887L119.268 67.4837ZM96.3671 58.626C97.7295 60.0115 98.4082 61.7178 98.4082 63.7501C98.4082 65.7825 97.7244 67.4734 96.3569 68.8742C94.9894 70.2698 93.3106 70.9727 91.3307 70.9727C89.3509 70.9727 87.6772 70.2749 86.325 68.8843C84.9677 67.4939 84.289 65.7825 84.289 63.7501C84.289 61.7178 84.9677 59.9962 86.325 58.6159C87.6824 57.2355 89.3509 56.5479 91.3307 56.5479C93.3106 56.5479 95.0047 57.2406 96.3671 58.626ZM81.4724 63.7501C81.4724 66.5464 82.4215 68.8996 84.3197 70.8046C86.2178 72.7146 88.5549 73.6672 91.3307 73.6672C94.1066 73.6672 96.4488 72.7146 98.3623 70.8046C100.276 68.8946 101.23 66.5414 101.23 63.7501C101.23 60.9589 100.276 58.6006 98.3623 56.6956C96.4488 54.7906 94.1066 53.8331 91.3307 53.8331C88.5549 53.8331 86.2178 54.7855 84.3197 56.6956C82.4215 58.6056 81.4724 60.9589 81.4724 63.7501ZM77.2371 67.6009C76.6861 68.6603 75.8697 69.4854 74.793 70.0814C73.7113 70.6773 72.4916 70.9727 71.1395 70.9727C69.1444 70.9727 67.4655 70.2749 66.1031 68.8843C64.7407 67.4939 64.062 65.7825 64.062 63.7501C64.062 61.7178 64.7356 59.9962 66.0877 58.6159C67.44 57.2355 69.1239 56.5479 71.1445 56.5479C72.4253 56.5479 73.5735 56.8331 74.5889 57.4087C75.6043 57.9842 76.3187 58.7483 76.7269 59.7058L79.1609 58.4223C78.5231 57.0318 77.4769 55.9162 76.033 55.0809C74.5889 54.2456 72.956 53.8279 71.1395 53.8279C69.3228 53.8279 67.639 54.2609 66.1235 55.1318C64.608 55.9978 63.414 57.1947 62.5465 58.7126C61.6791 60.2305 61.2402 61.9114 61.2402 63.7501C61.2402 66.5464 62.1945 68.8996 64.1079 70.8046C66.0214 72.7146 68.3636 73.6672 71.1395 73.6672C73.0581 73.6672 74.7776 73.2241 76.2982 72.348C77.8188 71.4668 78.9568 70.2749 79.7119 68.7672L77.2371 67.6009Z" fill="#404040"/>
</svg>
